<?xml version="1.0" encoding="utf-8" standalone="no"?>
<!DOCTYPE svg PUBLIC "-//W3C//DTD SVG 1.1//EN"
  "http://www.w3.org/Graphics/SVG/1.1/DTD/svg11.dtd">
<svg xmlns:xlink="http://www.w3.org/1999/xlink" width="356.595906pt" height="331.780593pt" viewBox="0 0 356.595906 331.780593" xmlns="http://www.w3.org/2000/svg" version="1.1">
 <metadata>
  <rdf:RDF xmlns:dc="http://purl.org/dc/elements/1.1/" xmlns:cc="http://creativecommons.org/ns#" xmlns:rdf="http://www.w3.org/1999/02/22-rdf-syntax-ns#">
   <cc:Work>
    <dc:type rdf:resource="http://purl.org/dc/dcmitype/StillImage"/>
    <dc:date>2026-09-24T05:41:57.669139</dc:date>
    <dc:format>image/svg+xml</dc:format>
    <dc:creator>
     <cc:Agent>
      <dc:title>Matplotlib v3.10.9, https://matplotlib.org/</dc:title>
     </cc:Agent>
    </dc:creator>
   </cc:Work>
  </rdf:RDF>
 </metadata>
 <defs>
  <style type="text/css">*{stroke-linejoin: round; stroke-linecap: butt}</style>
 </defs>
 <g id="figure_1">
  <g id="patch_1">
   <path d="M 0 331.780593 
L 356.595906 331.780593 
L 356.595906 0 
L 0 0 
L 0 331.780593 
z
" style="fill: none"/>
  </g>
  <g id="axes_1">
   <g id="patch_2">
    <path d="M 88.24 268.355906 
L 345.795906 268.355906 
L 345.795906 10.8 
L 88.24 10.8 
L 88.24 268.355906 
z
" style="fill: none"/>
   </g>
   <g id="matplotlib.axis_1">
    <g id="xtick_1">
     <g id="line2d_1">
      <path d="M 95.264252 268.355906 
L 95.264252 10.8 
" clip-path="url(#p49fb77f470)" style="fill: none; stroke: #e3e6ec; stroke-width: 1.2; stroke-linecap: square"/>
     </g>
     <g id="line2d_2">
      <defs>
       <path id="m606039f453" d="M 0 0 
L 0 3.5 
" style="stroke: #4a5268; stroke-width: 1.2"/>
      </defs>
      <g>
       <use xlink:href="#m606039f453" x="95.264252" y="268.355906" style="fill: #4a5268; stroke: #4a5268; stroke-width: 1.2"/>
      </g>
     </g>
     <g id="text_1">
      <!-- 0.0 -->
      <g style="fill: #4a5268" transform="translate(79.071908 291.635906) scale(0.22 -0.22)">
       <defs>
        <path id="IBMPlexSans-Regular-30" d="M 1920 -77 
Q 1389 -77 1046 198 
Q 704 474 544 989 
Q 384 1504 384 2234 
Q 384 2963 544 3481 
Q 704 4000 1046 4272 
Q 1389 4544 1920 4544 
Q 2458 4544 2797 4272 
Q 3136 4000 3296 3481 
Q 3456 2963 3456 2234 
Q 3456 1504 3296 989 
Q 3136 474 2797 198 
Q 2458 -77 1920 -77 
z
M 1920 390 
Q 2272 390 2483 579 
Q 2694 768 2793 1104 
Q 2893 1440 2893 1869 
L 2893 2598 
Q 2893 3034 2793 3366 
Q 2694 3699 2483 3888 
Q 2272 4077 1920 4077 
Q 1574 4077 1360 3888 
Q 1146 3699 1046 3366 
Q 947 3034 947 2598 
L 947 1869 
Q 947 1440 1046 1104 
Q 1146 768 1360 579 
Q 1574 390 1920 390 
z
" transform="scale(0.015625)"/>
        <path id="IBMPlexSans-Regular-2e" d="M 870 -77 
Q 672 -77 576 28 
Q 480 134 480 294 
L 480 378 
Q 480 544 576 646 
Q 672 749 870 749 
Q 1075 749 1168 646 
Q 1261 544 1261 378 
L 1261 294 
Q 1261 134 1168 28 
Q 1075 -77 870 -77 
z
" transform="scale(0.015625)"/>
       </defs>
       <use xlink:href="#IBMPlexSans-Regular-30"/>
       <use xlink:href="#IBMPlexSans-Regular-2e" transform="translate(59.999985 0)"/>
       <use xlink:href="#IBMPlexSans-Regular-30" transform="translate(87.199982 0)"/>
      </g>
     </g>
    </g>
    <g id="xtick_2">
     <g id="line2d_3">
      <path d="M 212.335118 268.355906 
L 212.335118 10.8 
" clip-path="url(#p49fb77f470)" style="fill: none; stroke: #e3e6ec; stroke-width: 1.2; stroke-linecap: square"/>
     </g>
     <g id="line2d_4">
      <g>
       <use xlink:href="#m606039f453" x="212.335118" y="268.355906" style="fill: #4a5268; stroke: #4a5268; stroke-width: 1.2"/>
      </g>
     </g>
     <g id="text_2">
      <!-- 0.5 -->
      <g style="fill: #4a5268" transform="translate(196.142774 291.635906) scale(0.22 -0.22)">
       <defs>
        <path id="IBMPlexSans-Regular-35" d="M 3187 4467 
L 3187 3994 
L 1229 3994 
L 1101 2291 
L 1146 2291 
Q 1254 2445 1376 2553 
Q 1498 2662 1664 2723 
Q 1830 2784 2061 2784 
Q 2445 2784 2745 2617 
Q 3046 2451 3219 2144 
Q 3392 1837 3392 1402 
Q 3392 966 3213 633 
Q 3034 301 2698 112 
Q 2362 -77 1888 -77 
Q 1517 -77 1254 35 
Q 992 147 809 320 
Q 627 493 493 685 
L 896 992 
Q 1069 730 1277 566 
Q 1485 403 1888 403 
Q 2342 403 2582 646 
Q 2822 890 2822 1331 
L 2822 1395 
Q 2822 1837 2582 2080 
Q 2342 2323 1888 2323 
Q 1581 2323 1405 2211 
Q 1229 2099 1088 1946 
L 634 2010 
L 794 4467 
L 3187 4467 
z
" transform="scale(0.015625)"/>
       </defs>
       <use xlink:href="#IBMPlexSans-Regular-30"/>
       <use xlink:href="#IBMPlexSans-Regular-2e" transform="translate(59.999985 0)"/>
       <use xlink:href="#IBMPlexSans-Regular-35" transform="translate(87.199982 0)"/>
      </g>
     </g>
    </g>
    <g id="xtick_3">
     <g id="line2d_5">
      <path d="M 329.405984 268.355906 
L 329.405984 10.8 
" clip-path="url(#p49fb77f470)" style="fill: none; stroke: #e3e6ec; stroke-width: 1.2; stroke-linecap: square"/>
     </g>
     <g id="line2d_6">
      <g>
       <use xlink:href="#m606039f453" x="329.405984" y="268.355906" style="fill: #4a5268; stroke: #4a5268; stroke-width: 1.2"/>
      </g>
     </g>
     <g id="text_3">
      <!-- 1.0 -->
      <g style="fill: #4a5268" transform="translate(313.213641 291.635906) scale(0.22 -0.22)">
       <defs>
        <path id="IBMPlexSans-Regular-31" d="M 3501 0 
L 563 0 
L 563 474 
L 1811 474 
L 1811 4070 
L 1766 4070 
L 640 3021 
L 326 3360 
L 1510 4467 
L 2349 4467 
L 2349 474 
L 3501 474 
L 3501 0 
z
" transform="scale(0.015625)"/>
       </defs>
       <use xlink:href="#IBMPlexSans-Regular-31"/>
       <use xlink:href="#IBMPlexSans-Regular-2e" transform="translate(59.999985 0)"/>
       <use xlink:href="#IBMPlexSans-Regular-30" transform="translate(87.199982 0)"/>
      </g>
     </g>
    </g>
    <g id="text_4">
     <!-- φ from geometry -->
     <g style="fill: #4a5268" transform="translate(134.169047 316.315906) scale(0.22 -0.22)">
      <defs>
       <path id="DejaVuSans-3c6" d="M 2591 3034 
Q 2388 3034 2388 2581 
L 2388 438 
Q 2684 438 2981 763 
Q 3247 1053 3247 1750 
Q 3247 2400 2978 2750 
Q 2759 3034 2591 3034 
z
M 2591 3525 
Q 3028 3525 3425 3113 
Q 3853 2672 3853 1750 
Q 3853 903 3425 400 
Q 3022 -75 2388 -75 
L 2388 -1331 
L 1816 -1331 
L 1816 -78 
Q 1194 -78 775 400 
Q 350 888 350 1747 
Q 350 2641 775 3097 
Q 1094 3438 1613 3525 
L 1613 3016 
Q 1406 2944 1225 2700 
Q 956 2341 956 1747 
Q 956 1116 1225 756 
Q 1466 434 1816 434 
L 1816 2581 
Q 1816 3525 2591 3525 
z
" transform="scale(0.015625)"/>
       <path id="IBMPlexSans-Regular-20" transform="scale(0.015625)"/>
       <path id="IBMPlexSans-Regular-66" d="M 723 0 
L 723 2854 
L 186 2854 
L 186 3302 
L 723 3302 
L 723 3968 
Q 723 4307 902 4521 
Q 1082 4736 1446 4736 
L 1946 4736 
L 1946 4288 
L 1235 4288 
L 1235 3302 
L 1946 3302 
L 1946 2854 
L 1235 2854 
L 1235 0 
L 723 0 
z
" transform="scale(0.015625)"/>
       <path id="IBMPlexSans-Regular-72" d="M 1056 0 
L 544 0 
L 544 3302 
L 1056 3302 
L 1056 2694 
L 1088 2694 
Q 1146 2854 1267 2992 
Q 1389 3130 1581 3216 
Q 1773 3302 2042 3302 
L 2240 3302 
L 2240 2790 
L 1939 2790 
Q 1664 2790 1465 2716 
Q 1267 2643 1161 2521 
Q 1056 2400 1056 2240 
L 1056 0 
z
" transform="scale(0.015625)"/>
       <path id="IBMPlexSans-Regular-6f" d="M 1792 -77 
Q 1350 -77 1014 137 
Q 678 352 489 739 
Q 301 1126 301 1651 
Q 301 2176 489 2563 
Q 678 2950 1014 3164 
Q 1350 3379 1792 3379 
Q 2234 3379 2570 3164 
Q 2906 2950 3094 2563 
Q 3283 2176 3283 1651 
Q 3283 1126 3094 739 
Q 2906 352 2570 137 
Q 2234 -77 1792 -77 
z
M 1792 378 
Q 2208 378 2470 634 
Q 2733 890 2733 1414 
L 2733 1888 
Q 2733 2413 2470 2669 
Q 2208 2925 1792 2925 
Q 1382 2925 1116 2669 
Q 851 2413 851 1888 
L 851 1414 
Q 851 890 1116 634 
Q 1382 378 1792 378 
z
" transform="scale(0.015625)"/>
       <path id="IBMPlexSans-Regular-6d" d="M 1056 0 
L 544 0 
L 544 3302 
L 1056 3302 
L 1056 2765 
L 1082 2765 
Q 1190 3021 1388 3200 
Q 1587 3379 1971 3379 
Q 2298 3379 2573 3222 
Q 2848 3066 2982 2707 
L 2995 2707 
Q 3085 2976 3331 3177 
Q 3578 3379 4000 3379 
Q 4506 3379 4790 3049 
Q 5075 2720 5075 2118 
L 5075 0 
L 4563 0 
L 4563 2029 
Q 4563 2464 4390 2691 
Q 4218 2918 3840 2918 
Q 3642 2918 3462 2851 
Q 3283 2784 3174 2643 
Q 3066 2502 3066 2291 
L 3066 0 
L 2554 0 
L 2554 2029 
Q 2554 2470 2381 2694 
Q 2208 2918 1843 2918 
Q 1645 2918 1462 2851 
Q 1280 2784 1168 2643 
Q 1056 2502 1056 2291 
L 1056 0 
z
" transform="scale(0.015625)"/>
       <path id="IBMPlexSans-Regular-67" d="M 3328 -365 
Q 3328 -704 3149 -925 
Q 2970 -1146 2614 -1251 
Q 2259 -1357 1728 -1357 
Q 1216 -1357 893 -1261 
Q 570 -1165 422 -982 
Q 275 -800 275 -544 
Q 275 -275 416 -121 
Q 557 32 800 96 
L 800 166 
Q 659 237 582 349 
Q 506 461 506 627 
Q 506 877 666 1008 
Q 826 1139 1075 1203 
L 1075 1229 
Q 781 1370 617 1632 
Q 454 1894 454 2240 
Q 454 2579 608 2835 
Q 762 3091 1043 3235 
Q 1325 3379 1696 3379 
Q 1875 3379 2032 3347 
Q 2189 3315 2323 3251 
L 2323 3309 
Q 2323 3501 2412 3625 
Q 2502 3750 2707 3750 
L 3200 3750 
L 3200 3302 
L 2573 3302 
L 2573 3091 
Q 2752 2938 2851 2720 
Q 2950 2502 2950 2240 
Q 2950 1907 2796 1648 
Q 2643 1389 2361 1245 
Q 2080 1101 1702 1101 
Q 1619 1101 1536 1110 
Q 1453 1120 1382 1133 
Q 1222 1088 1084 1001 
Q 947 915 947 762 
Q 947 614 1088 563 
Q 1229 512 1453 512 
L 2157 512 
Q 2771 512 3049 278 
Q 3328 45 3328 -365 
z
M 2848 -403 
Q 2848 -205 2697 -86 
Q 2547 32 2163 32 
L 1062 32 
Q 902 -38 828 -150 
Q 755 -262 755 -416 
Q 755 -634 918 -787 
Q 1082 -941 1472 -941 
L 1946 -941 
Q 2374 -941 2611 -806 
Q 2848 -672 2848 -403 
z
M 1702 1510 
Q 2029 1510 2221 1667 
Q 2413 1824 2413 2150 
L 2413 2330 
Q 2413 2656 2221 2813 
Q 2029 2970 1702 2970 
Q 1376 2970 1184 2813 
Q 992 2656 992 2330 
L 992 2150 
Q 992 1824 1184 1667 
Q 1376 1510 1702 1510 
z
" transform="scale(0.015625)"/>
       <path id="IBMPlexSans-Regular-65" d="M 1786 -77 
Q 1338 -77 1005 137 
Q 672 352 486 739 
Q 301 1126 301 1651 
Q 301 2176 486 2563 
Q 672 2950 1005 3164 
Q 1338 3379 1786 3379 
Q 2227 3379 2547 3171 
Q 2867 2963 3040 2598 
Q 3213 2234 3213 1766 
L 3213 1523 
L 838 1523 
L 838 1370 
Q 838 941 1097 656 
Q 1357 371 1818 371 
Q 2131 371 2364 518 
Q 2598 666 2726 941 
L 3091 678 
Q 2931 346 2592 134 
Q 2253 -77 1786 -77 
z
M 1786 2950 
Q 1510 2950 1296 2822 
Q 1082 2694 960 2467 
Q 838 2240 838 1952 
L 838 1907 
L 2662 1907 
L 2662 1978 
Q 2662 2272 2553 2489 
Q 2445 2707 2246 2828 
Q 2048 2950 1786 2950 
z
" transform="scale(0.015625)"/>
       <path id="IBMPlexSans-Regular-74" d="M 1914 0 
L 1274 0 
Q 1011 0 870 153 
Q 730 307 730 544 
L 730 2854 
L 186 2854 
L 186 3302 
L 493 3302 
Q 659 3302 720 3369 
Q 781 3437 781 3603 
L 781 4218 
L 1242 4218 
L 1242 3302 
L 1965 3302 
L 1965 2854 
L 1242 2854 
L 1242 448 
L 1914 448 
L 1914 0 
z
" transform="scale(0.015625)"/>
       <path id="IBMPlexSans-Regular-79" d="M 1779 1056 
L 2579 3302 
L 3085 3302 
L 1606 -768 
Q 1536 -966 1449 -1078 
Q 1363 -1190 1222 -1235 
Q 1082 -1280 838 -1280 
L 576 -1280 
L 576 -832 
L 1094 -832 
L 1344 -128 
L 109 3302 
L 621 3302 
L 1414 1056 
L 1568 518 
L 1600 518 
L 1779 1056 
z
" transform="scale(0.015625)"/>
      </defs>
      <use xlink:href="#DejaVuSans-3c6"/>
      <use xlink:href="#IBMPlexSans-Regular-20" transform="translate(65.966797 0)"/>
      <use xlink:href="#IBMPlexSans-Regular-66" transform="translate(89.566788 0)"/>
      <use xlink:href="#IBMPlexSans-Regular-72" transform="translate(121.966782 0)"/>
      <use xlink:href="#IBMPlexSans-Regular-6f" transform="translate(158.666779 0)"/>
      <use xlink:href="#IBMPlexSans-Regular-6d" transform="translate(214.666763 0)"/>
      <use xlink:href="#IBMPlexSans-Regular-20" transform="translate(301.966751 0)"/>
      <use xlink:href="#IBMPlexSans-Regular-67" transform="translate(325.566742 0)"/>
      <use xlink:href="#IBMPlexSans-Regular-65" transform="translate(378.36673 0)"/>
      <use xlink:href="#IBMPlexSans-Regular-6f" transform="translate(433.266724 0)"/>
      <use xlink:href="#IBMPlexSans-Regular-6d" transform="translate(489.266708 0)"/>
      <use xlink:href="#IBMPlexSans-Regular-65" transform="translate(576.566696 0)"/>
      <use xlink:href="#IBMPlexSans-Regular-74" transform="translate(631.46669 0)"/>
      <use xlink:href="#IBMPlexSans-Regular-72" transform="translate(666.566681 0)"/>
      <use xlink:href="#IBMPlexSans-Regular-79" transform="translate(703.266678 0)"/>
     </g>
    </g>
   </g>
   <g id="matplotlib.axis_2">
    <g id="ytick_1">
     <g id="line2d_7">
      <path d="M 88.24 261.331654 
L 345.795906 261.331654 
" clip-path="url(#p49fb77f470)" style="fill: none; stroke: #e3e6ec; stroke-width: 1.2; stroke-linecap: square"/>
     </g>
     <g id="line2d_8">
      <defs>
       <path id="m2e20338950" d="M 0 0 
L -3.5 0 
" style="stroke: #4a5268; stroke-width: 1.2"/>
      </defs>
      <g>
       <use xlink:href="#m2e20338950" x="88.24" y="261.331654" style="fill: #4a5268; stroke: #4a5268; stroke-width: 1.2"/>
      </g>
     </g>
     <g id="text_5">
      <!-- 0.00 -->
      <g style="fill: #4a5268" transform="translate(35.655313 269.471654) scale(0.22 -0.22)">
       <use xlink:href="#IBMPlexSans-Regular-30"/>
       <use xlink:href="#IBMPlexSans-Regular-2e" transform="translate(59.999985 0)"/>
       <use xlink:href="#IBMPlexSans-Regular-30" transform="translate(87.199982 0)"/>
       <use xlink:href="#IBMPlexSans-Regular-30" transform="translate(147.199966 0)"/>
      </g>
     </g>
    </g>
    <g id="ytick_2">
     <g id="line2d_9">
      <path d="M 88.24 202.79622 
L 345.795906 202.79622 
" clip-path="url(#p49fb77f470)" style="fill: none; stroke: #e3e6ec; stroke-width: 1.2; stroke-linecap: square"/>
     </g>
     <g id="line2d_10">
      <g>
       <use xlink:href="#m2e20338950" x="88.24" y="202.79622" style="fill: #4a5268; stroke: #4a5268; stroke-width: 1.2"/>
      </g>
     </g>
     <g id="text_6">
      <!-- 0.25 -->
      <g style="fill: #4a5268" transform="translate(35.655313 210.93622) scale(0.22 -0.22)">
       <defs>
        <path id="IBMPlexSans-Regular-32" d="M 3411 474 
L 3411 0 
L 480 0 
L 480 550 
L 1939 1894 
Q 2253 2182 2464 2508 
Q 2675 2835 2675 3155 
L 2675 3232 
Q 2675 3603 2470 3833 
Q 2266 4064 1850 4064 
Q 1440 4064 1225 3846 
Q 1011 3629 922 3309 
L 442 3494 
Q 531 3757 700 3997 
Q 870 4237 1158 4390 
Q 1446 4544 1875 4544 
Q 2310 4544 2617 4377 
Q 2925 4211 3085 3920 
Q 3245 3629 3245 3245 
Q 3245 2899 3120 2611 
Q 2995 2323 2774 2067 
Q 2554 1811 2266 1555 
L 1062 474 
L 3411 474 
z
" transform="scale(0.015625)"/>
       </defs>
       <use xlink:href="#IBMPlexSans-Regular-30"/>
       <use xlink:href="#IBMPlexSans-Regular-2e" transform="translate(59.999985 0)"/>
       <use xlink:href="#IBMPlexSans-Regular-32" transform="translate(87.199982 0)"/>
       <use xlink:href="#IBMPlexSans-Regular-35" transform="translate(147.199966 0)"/>
      </g>
     </g>
    </g>
    <g id="ytick_3">
     <g id="line2d_11">
      <path d="M 88.24 144.260787 
L 345.795906 144.260787 
" clip-path="url(#p49fb77f470)" style="fill: none; stroke: #e3e6ec; stroke-width: 1.2; stroke-linecap: square"/>
     </g>
     <g id="line2d_12">
      <g>
       <use xlink:href="#m2e20338950" x="88.24" y="144.260787" style="fill: #4a5268; stroke: #4a5268; stroke-width: 1.2"/>
      </g>
     </g>
     <g id="text_7">
      <!-- 0.50 -->
      <g style="fill: #4a5268" transform="translate(35.655313 152.400787) scale(0.22 -0.22)">
       <use xlink:href="#IBMPlexSans-Regular-30"/>
       <use xlink:href="#IBMPlexSans-Regular-2e" transform="translate(59.999985 0)"/>
       <use xlink:href="#IBMPlexSans-Regular-35" transform="translate(87.199982 0)"/>
       <use xlink:href="#IBMPlexSans-Regular-30" transform="translate(147.199966 0)"/>
      </g>
     </g>
    </g>
    <g id="ytick_4">
     <g id="line2d_13">
      <path d="M 88.24 85.725354 
L 345.795906 85.725354 
" clip-path="url(#p49fb77f470)" style="fill: none; stroke: #e3e6ec; stroke-width: 1.2; stroke-linecap: square"/>
     </g>
     <g id="line2d_14">
      <g>
       <use xlink:href="#m2e20338950" x="88.24" y="85.725354" style="fill: #4a5268; stroke: #4a5268; stroke-width: 1.2"/>
      </g>
     </g>
     <g id="text_8">
      <!-- 0.75 -->
      <g style="fill: #4a5268" transform="translate(35.655313 93.865354) scale(0.22 -0.22)">
       <defs>
        <path id="IBMPlexSans-Regular-37" d="M 1696 0 
L 1120 0 
L 2829 4006 
L 922 4006 
L 922 3174 
L 442 3174 
L 442 4467 
L 3373 4467 
L 3373 3994 
L 1696 0 
z
" transform="scale(0.015625)"/>
       </defs>
       <use xlink:href="#IBMPlexSans-Regular-30"/>
       <use xlink:href="#IBMPlexSans-Regular-2e" transform="translate(59.999985 0)"/>
       <use xlink:href="#IBMPlexSans-Regular-37" transform="translate(87.199982 0)"/>
       <use xlink:href="#IBMPlexSans-Regular-35" transform="translate(147.199966 0)"/>
      </g>
     </g>
    </g>
    <g id="ytick_5">
     <g id="line2d_15">
      <path d="M 88.24 27.189921 
L 345.795906 27.189921 
" clip-path="url(#p49fb77f470)" style="fill: none; stroke: #e3e6ec; stroke-width: 1.2; stroke-linecap: square"/>
     </g>
     <g id="line2d_16">
      <g>
       <use xlink:href="#m2e20338950" x="88.24" y="27.189921" style="fill: #4a5268; stroke: #4a5268; stroke-width: 1.2"/>
      </g>
     </g>
     <g id="text_9">
      <!-- 1.00 -->
      <g style="fill: #4a5268" transform="translate(35.655313 35.329921) scale(0.22 -0.22)">
       <use xlink:href="#IBMPlexSans-Regular-31"/>
       <use xlink:href="#IBMPlexSans-Regular-2e" transform="translate(59.999985 0)"/>
       <use xlink:href="#IBMPlexSans-Regular-30" transform="translate(87.199982 0)"/>
       <use xlink:href="#IBMPlexSans-Regular-30" transform="translate(147.199966 0)"/>
      </g>
     </g>
    </g>
    <g id="text_10">
     <!-- φ read by CNN -->
     <g style="fill: #4a5268" transform="translate(27.08 211.206859) rotate(-90) scale(0.22 -0.22)">
      <defs>
       <path id="IBMPlexSans-Regular-61" d="M 3232 0 
L 2944 0 
Q 2739 0 2611 86 
Q 2483 173 2426 326 
Q 2387 422 2374 538 
L 2342 538 
Q 2240 237 1987 80 
Q 1734 -77 1389 -77 
Q 864 -77 573 192 
Q 282 461 282 922 
Q 282 1235 435 1449 
Q 589 1664 899 1776 
Q 1210 1888 1690 1888 
L 2342 1888 
L 2342 2214 
Q 2342 2566 2150 2752 
Q 1958 2938 1562 2938 
Q 1267 2938 1062 2803 
Q 858 2669 723 2445 
L 416 2733 
Q 550 2995 844 3187 
Q 1139 3379 1587 3379 
Q 2182 3379 2518 3084 
Q 2854 2790 2854 2266 
L 2854 448 
L 3232 448 
L 3232 0 
z
M 2342 1504 
L 1664 1504 
Q 1229 1504 1024 1376 
Q 819 1248 819 1005 
L 819 870 
Q 819 627 998 492 
Q 1178 358 1472 358 
Q 1728 358 1923 438 
Q 2118 518 2230 656 
Q 2342 794 2342 960 
L 2342 1504 
z
" transform="scale(0.015625)"/>
       <path id="IBMPlexSans-Regular-64" d="M 2656 0 
L 2656 538 
L 2630 538 
Q 2483 230 2243 76 
Q 2003 -77 1664 -77 
Q 1254 -77 950 134 
Q 646 346 483 736 
Q 320 1126 320 1651 
Q 320 2182 483 2569 
Q 646 2957 950 3168 
Q 1254 3379 1664 3379 
Q 2003 3379 2252 3228 
Q 2502 3078 2630 2765 
L 2656 2765 
L 2656 4736 
L 3168 4736 
L 3168 0 
L 2656 0 
z
M 1805 384 
Q 2042 384 2234 464 
Q 2426 544 2541 694 
Q 2656 845 2656 1056 
L 2656 2285 
Q 2656 2470 2541 2611 
Q 2426 2752 2234 2835 
Q 2042 2918 1805 2918 
Q 1376 2918 1123 2646 
Q 870 2374 870 1933 
L 870 1370 
Q 870 928 1123 656 
Q 1376 384 1805 384 
z
" transform="scale(0.015625)"/>
       <path id="IBMPlexSans-Regular-62" d="M 544 0 
L 544 4736 
L 1056 4736 
L 1056 2765 
L 1082 2765 
Q 1210 3078 1459 3228 
Q 1709 3379 2048 3379 
Q 2464 3379 2765 3168 
Q 3066 2957 3229 2569 
Q 3392 2182 3392 1651 
Q 3392 1126 3229 736 
Q 3066 346 2765 134 
Q 2464 -77 2048 -77 
Q 1709 -77 1469 76 
Q 1229 230 1082 538 
L 1056 538 
L 1056 0 
L 544 0 
z
M 1907 384 
Q 2342 384 2592 656 
Q 2842 928 2842 1370 
L 2842 1933 
Q 2842 2374 2592 2646 
Q 2342 2918 1907 2918 
Q 1677 2918 1481 2835 
Q 1286 2752 1171 2611 
Q 1056 2470 1056 2285 
L 1056 1056 
Q 1056 845 1171 694 
Q 1286 544 1481 464 
Q 1677 384 1907 384 
z
" transform="scale(0.015625)"/>
       <path id="IBMPlexSans-Regular-43" d="M 2170 -77 
Q 1606 -77 1203 182 
Q 800 442 585 950 
Q 371 1459 371 2208 
Q 371 2957 585 3478 
Q 800 4000 1203 4272 
Q 1606 4544 2170 4544 
Q 2726 4544 3110 4288 
Q 3494 4032 3706 3565 
L 3270 3302 
Q 3136 3648 2861 3856 
Q 2586 4064 2170 4064 
Q 1594 4064 1270 3645 
Q 947 3226 947 2541 
L 947 1875 
Q 947 1190 1270 796 
Q 1594 403 2170 403 
Q 2598 403 2886 624 
Q 3174 845 3309 1210 
L 3738 941 
Q 3526 474 3126 198 
Q 2726 -77 2170 -77 
z
" transform="scale(0.015625)"/>
       <path id="IBMPlexSans-Regular-4e" d="M 3309 0 
L 1677 2726 
L 1139 3718 
L 1120 3718 
L 1120 0 
L 595 0 
L 595 4467 
L 1216 4467 
L 2848 1741 
L 3386 749 
L 3405 749 
L 3405 4467 
L 3930 4467 
L 3930 0 
L 3309 0 
z
" transform="scale(0.015625)"/>
      </defs>
      <use xlink:href="#DejaVuSans-3c6"/>
      <use xlink:href="#IBMPlexSans-Regular-20" transform="translate(65.966797 0)"/>
      <use xlink:href="#IBMPlexSans-Regular-72" transform="translate(89.566788 0)"/>
      <use xlink:href="#IBMPlexSans-Regular-65" transform="translate(126.266785 0)"/>
      <use xlink:href="#IBMPlexSans-Regular-61" transform="translate(181.166779 0)"/>
      <use xlink:href="#IBMPlexSans-Regular-64" transform="translate(234.566772 0)"/>
      <use xlink:href="#IBMPlexSans-Regular-20" transform="translate(292.566757 0)"/>
      <use xlink:href="#IBMPlexSans-Regular-62" transform="translate(316.166748 0)"/>
      <use xlink:href="#IBMPlexSans-Regular-79" transform="translate(374.166733 0)"/>
      <use xlink:href="#IBMPlexSans-Regular-20" transform="translate(424.066727 0)"/>
      <use xlink:href="#IBMPlexSans-Regular-43" transform="translate(447.666718 0)"/>
      <use xlink:href="#IBMPlexSans-Regular-4e" transform="translate(509.766708 0)"/>
      <use xlink:href="#IBMPlexSans-Regular-4e" transform="translate(580.46669 0)"/>
     </g>
    </g>
   </g>
   <g id="line2d_17">
    <path d="M 95.264252 261.331654 
L 341.113071 15.482835 
" clip-path="url(#p49fb77f470)" style="fill: none; stroke-dasharray: 5.92,2.56; stroke-dashoffset: 0; stroke: #8a90a0; stroke-width: 1.6"/>
   </g>
   <g id="line2d_18"/>
   <g id="line2d_19"/>
   <g id="patch_3">
    <path d="M 88.24 268.355906 
L 88.24 10.8 
" style="fill: none; stroke: #8a90a0; stroke-width: 1.4; stroke-linejoin: miter; stroke-linecap: square"/>
   </g>
   <g id="patch_4">
    <path d="M 88.24 268.355906 
L 345.795906 268.355906 
" style="fill: none; stroke: #8a90a0; stroke-width: 1.4; stroke-linejoin: miter; stroke-linecap: square"/>
   </g>
   <g id="line2d_20">
    <defs>
     <path id="m4ed0e6fa38" d="M 0 6.5 
C 1.72382 6.5 3.377269 5.815119 4.596194 4.596194 
C 5.815119 3.377269 6.5 1.72382 6.5 0 
C 6.5 -1.72382 5.815119 -3.377269 4.596194 -4.596194 
C 3.377269 -5.815119 1.72382 -6.5 0 -6.5 
C -1.72382 -6.5 -3.377269 -5.815119 -4.596194 -4.596194 
C -5.815119 -3.377269 -6.5 -1.72382 -6.5 0 
C -6.5 1.72382 -5.815119 3.377269 -4.596194 4.596194 
C -3.377269 5.815119 -1.72382 6.5 0 6.5 
z
" style="stroke: #ffffff; stroke-width: 1.6"/>
    </defs>
    <g clip-path="url(#p49fb77f470)">
     <use xlink:href="#m4ed0e6fa38" x="235.89563" y="141.700906" style="fill: #13294b; stroke: #ffffff; stroke-width: 1.6"/>
    </g>
   </g>
   <g id="line2d_21">
    <g clip-path="url(#p49fb77f470)">
     <use xlink:href="#m4ed0e6fa38" x="166.092126" y="243.942868" style="fill: #13294b; stroke: #ffffff; stroke-width: 1.6"/>
    </g>
   </g>
   <g id="line2d_22">
    <g clip-path="url(#p49fb77f470)">
     <use xlink:href="#m4ed0e6fa38" x="279.687451" y="68.585233" style="fill: #13294b; stroke: #ffffff; stroke-width: 1.6"/>
    </g>
   </g>
   <g id="line2d_23">
    <g clip-path="url(#p49fb77f470)">
     <use xlink:href="#m4ed0e6fa38" x="97.605669" y="195.299316" style="fill: #13294b; stroke: #ffffff; stroke-width: 1.6"/>
    </g>
   </g>
   <g id="line2d_24">
    <g clip-path="url(#p49fb77f470)">
     <use xlink:href="#m4ed0e6fa38" x="295.601772" y="61.729855" style="fill: #13294b; stroke: #ffffff; stroke-width: 1.6"/>
    </g>
   </g>
   <g id="line2d_25">
    <g clip-path="url(#p49fb77f470)">
     <use xlink:href="#m4ed0e6fa38" x="303.805878" y="62.497515" style="fill: #13294b; stroke: #ffffff; stroke-width: 1.6"/>
    </g>
   </g>
   <g id="line2d_26">
    <defs>
     <path id="m15c6452065" d="M -6.5 6.5 
L 6.5 6.5 
L 6.5 -6.5 
L -6.5 -6.5 
z
" style="stroke: #ffffff; stroke-width: 1.6; stroke-linejoin: miter"/>
    </defs>
    <g clip-path="url(#p49fb77f470)">
     <use xlink:href="#m15c6452065" x="264.431654" y="79.038703" style="fill: #2a78d6; stroke: #ffffff; stroke-width: 1.6; stroke-linejoin: miter"/>
    </g>
   </g>
   <g id="line2d_27">
    <g clip-path="url(#p49fb77f470)">
     <use xlink:href="#m15c6452065" x="209.993701" y="118.989157" style="fill: #2a78d6; stroke: #ffffff; stroke-width: 1.6; stroke-linejoin: miter"/>
    </g>
   </g>
   <g id="line2d_28">
    <g clip-path="url(#p49fb77f470)">
     <use xlink:href="#m15c6452065" x="295.601772" y="50.936503" style="fill: #2a78d6; stroke: #ffffff; stroke-width: 1.6; stroke-linejoin: miter"/>
    </g>
   </g>
   <g id="line2d_29">
    <g clip-path="url(#p49fb77f470)">
     <use xlink:href="#m15c6452065" x="132.726929" y="171.592523" style="fill: #2a78d6; stroke: #ffffff; stroke-width: 1.6; stroke-linejoin: miter"/>
    </g>
   </g>
   <g id="line2d_30">
    <g clip-path="url(#p49fb77f470)">
     <use xlink:href="#m15c6452065" x="306.577165" y="45.785814" style="fill: #2a78d6; stroke: #ffffff; stroke-width: 1.6; stroke-linejoin: miter"/>
    </g>
   </g>
   <g id="line2d_31">
    <g clip-path="url(#p49fb77f470)">
     <use xlink:href="#m15c6452065" x="312.174616" y="47.61185" style="fill: #2a78d6; stroke: #ffffff; stroke-width: 1.6; stroke-linejoin: miter"/>
    </g>
   </g>
   <g id="patch_5">
    <path d="M 275.478502 179.747321 
Q 301.903265 138.432918 328.328027 97.118515 
" style="fill: none; stroke: #eb6834; stroke-width: 1.4; stroke-linecap: round"/>
   </g>
   <g id="text_11">
    <!-- REF-H read -->
    <g style="fill: #eb6834" transform="translate(217.017953 196.007307) scale(0.17 -0.17)">
     <defs>
      <path id="IBMPlexSans-Regular-52" d="M 1133 1920 
L 1133 0 
L 595 0 
L 595 4467 
L 2374 4467 
Q 2765 4467 3043 4320 
Q 3322 4173 3472 3891 
Q 3622 3610 3622 3200 
Q 3622 2714 3392 2394 
Q 3162 2074 2726 1971 
L 3750 0 
L 3142 0 
L 2176 1920 
L 1133 1920 
z
M 1133 2381 
L 2374 2381 
Q 2586 2381 2736 2454 
Q 2886 2528 2966 2672 
Q 3046 2816 3046 3021 
L 3046 3354 
Q 3046 3558 2966 3702 
Q 2886 3846 2736 3920 
Q 2586 3994 2374 3994 
L 1133 3994 
L 1133 2381 
z
" transform="scale(0.015625)"/>
      <path id="IBMPlexSans-Regular-45" d="M 3322 0 
L 595 0 
L 595 4467 
L 3322 4467 
L 3322 3994 
L 1133 3994 
L 1133 2496 
L 3194 2496 
L 3194 2022 
L 1133 2022 
L 1133 474 
L 3322 474 
L 3322 0 
z
" transform="scale(0.015625)"/>
      <path id="IBMPlexSans-Regular-46" d="M 1133 0 
L 595 0 
L 595 4467 
L 3258 4467 
L 3258 3994 
L 1133 3994 
L 1133 2496 
L 3072 2496 
L 3072 2022 
L 1133 2022 
L 1133 0 
z
" transform="scale(0.015625)"/>
      <path id="IBMPlexSans-Regular-2d" d="M 2112 1670 
L 442 1670 
L 442 2221 
L 2112 2221 
L 2112 1670 
z
" transform="scale(0.015625)"/>
      <path id="IBMPlexSans-Regular-48" d="M 3392 0 
L 3392 2022 
L 1133 2022 
L 1133 0 
L 595 0 
L 595 4467 
L 1133 4467 
L 1133 2496 
L 3392 2496 
L 3392 4467 
L 3930 4467 
L 3930 0 
L 3392 0 
z
" transform="scale(0.015625)"/>
     </defs>
     <use xlink:href="#IBMPlexSans-Regular-52"/>
     <use xlink:href="#IBMPlexSans-Regular-45" transform="translate(63.999985 0)"/>
     <use xlink:href="#IBMPlexSans-Regular-46" transform="translate(122.299973 0)"/>
     <use xlink:href="#IBMPlexSans-Regular-2d" transform="translate(178.199966 0)"/>
     <use xlink:href="#IBMPlexSans-Regular-48" transform="translate(218.09996 0)"/>
     <use xlink:href="#IBMPlexSans-Regular-20" transform="translate(288.799942 0)"/>
     <use xlink:href="#IBMPlexSans-Regular-72" transform="translate(312.399933 0)"/>
     <use xlink:href="#IBMPlexSans-Regular-65" transform="translate(349.09993 0)"/>
     <use xlink:href="#IBMPlexSans-Regular-61" transform="translate(403.999924 0)"/>
     <use xlink:href="#IBMPlexSans-Regular-64" transform="translate(457.399918 0)"/>
    </g>
    <!-- as φ ≈ 0.71 -->
    <g style="fill: #eb6834" transform="translate(217.017953 214.503307) scale(0.17 -0.17)">
     <defs>
      <path id="IBMPlexSans-Regular-73" d="M 1536 -77 
Q 1082 -77 768 99 
Q 454 275 230 570 
L 595 864 
Q 787 627 1024 492 
Q 1261 358 1574 358 
Q 1901 358 2083 499 
Q 2266 640 2266 896 
Q 2266 1088 2141 1229 
Q 2016 1370 1690 1414 
L 1427 1453 
Q 1126 1498 883 1603 
Q 640 1709 502 1904 
Q 365 2099 365 2406 
Q 365 2899 701 3139 
Q 1037 3379 1542 3379 
Q 1811 3379 2019 3315 
Q 2227 3251 2393 3132 
Q 2560 3014 2694 2848 
L 2355 2541 
Q 2246 2694 2035 2819 
Q 1824 2944 1504 2944 
Q 1190 2944 1024 2806 
Q 858 2669 858 2432 
Q 858 2195 1021 2083 
Q 1184 1971 1491 1920 
L 1747 1882 
Q 2298 1798 2528 1564 
Q 2758 1331 2758 954 
Q 2758 634 2611 403 
Q 2464 173 2189 48 
Q 1914 -77 1536 -77 
z
" transform="scale(0.015625)"/>
      <path id="DejaVuSans-2248" d="M 4684 1947 
L 4684 1388 
Q 4356 1144 4076 1036 
Q 3797 928 3494 928 
Q 3150 928 2694 1113 
Q 2663 1125 2641 1134 
Q 2622 1141 2575 1159 
Q 2091 1350 1797 1350 
Q 1522 1350 1253 1231 
Q 984 1113 678 850 
L 678 1409 
Q 1006 1653 1286 1761 
Q 1566 1869 1869 1869 
Q 2213 1869 2672 1684 
Q 2706 1669 2722 1663 
Q 2741 1656 2788 1638 
Q 3272 1447 3566 1447 
Q 3834 1447 4098 1564 
Q 4363 1681 4684 1947 
z
M 4684 3163 
L 4684 2606 
Q 4356 2359 4076 2251 
Q 3797 2144 3494 2144 
Q 3150 2144 2694 2328 
Q 2663 2341 2641 2350 
Q 2622 2356 2575 2375 
Q 2091 2566 1797 2566 
Q 1522 2566 1253 2447 
Q 984 2328 678 2069 
L 678 2625 
Q 1006 2869 1286 2976 
Q 1566 3084 1869 3084 
Q 2213 3084 2672 2900 
Q 2703 2888 2719 2881 
Q 2741 2872 2788 2853 
Q 3272 2663 3566 2663 
Q 3834 2663 4098 2780 
Q 4363 2897 4684 3163 
z
" transform="scale(0.015625)"/>
     </defs>
     <use xlink:href="#IBMPlexSans-Regular-61"/>
     <use xlink:href="#IBMPlexSans-Regular-73" transform="translate(53.399994 0)"/>
     <use xlink:href="#IBMPlexSans-Regular-20" transform="translate(102.099991 0)"/>
     <use xlink:href="#DejaVuSans-3c6" transform="translate(125.699982 0)"/>
     <use xlink:href="#IBMPlexSans-Regular-20" transform="translate(191.666779 0)"/>
     <use xlink:href="#DejaVuSans-2248" transform="translate(215.266769 0)"/>
     <use xlink:href="#IBMPlexSans-Regular-20" transform="translate(299.055832 0)"/>
     <use xlink:href="#IBMPlexSans-Regular-30" transform="translate(322.655823 0)"/>
     <use xlink:href="#IBMPlexSans-Regular-2e" transform="translate(382.655807 0)"/>
     <use xlink:href="#IBMPlexSans-Regular-37" transform="translate(409.855804 0)"/>
     <use xlink:href="#IBMPlexSans-Regular-31" transform="translate(469.855789 0)"/>
    </g>
   </g>
   <g id="line2d_32">
    <defs>
     <path id="mdb88f7d1e1" d="M -0 10.606602 
L 10.606602 0 
L 0 -10.606602 
L -10.606602 -0 
z
" style="stroke: #ffffff; stroke-width: 1.6; stroke-linejoin: miter"/>
    </defs>
    <g clip-path="url(#p49fb77f470)">
     <use xlink:href="#mdb88f7d1e1" x="329.405984" y="95.433158" style="fill: #eb6834; stroke: #ffffff; stroke-width: 1.6; stroke-linejoin: miter"/>
    </g>
   </g>
   <g id="legend_1">
    <g id="line2d_33">
     <defs>
      <path id="m6edac2a864" d="M 0 6 
C 1.591219 6 3.117479 5.367802 4.242641 4.242641 
C 5.367802 3.117479 6 1.591219 6 0 
C 6 -1.591219 5.367802 -3.117479 4.242641 -4.242641 
C 3.117479 -5.367802 1.591219 -6 0 -6 
C -1.591219 -6 -3.117479 -5.367802 -4.242641 -4.242641 
C -5.367802 -3.117479 -6 -1.591219 -6 0 
C -6 1.591219 -5.367802 3.117479 -4.242641 4.242641 
C -3.117479 5.367802 -1.591219 6 0 6 
z
" style="stroke: #13294b"/>
     </defs>
     <g>
      <use xlink:href="#m6edac2a864" x="112.24" y="25.36" style="fill: #13294b; stroke: #13294b"/>
     </g>
    </g>
    <g id="text_12">
     <!-- deep (held out) -->
     <g transform="translate(129.84 30.96) scale(0.16 -0.16)">
      <defs>
       <path id="IBMPlexSans-Regular-70" d="M 544 -1280 
L 544 3302 
L 1056 3302 
L 1056 2765 
L 1082 2765 
Q 1210 3078 1459 3228 
Q 1709 3379 2048 3379 
Q 2464 3379 2765 3168 
Q 3066 2957 3229 2569 
Q 3392 2182 3392 1651 
Q 3392 1126 3229 736 
Q 3066 346 2765 134 
Q 2464 -77 2048 -77 
Q 1709 -77 1469 76 
Q 1229 230 1082 538 
L 1056 538 
L 1056 -1280 
L 544 -1280 
z
M 1907 384 
Q 2342 384 2592 656 
Q 2842 928 2842 1370 
L 2842 1933 
Q 2842 2374 2592 2646 
Q 2342 2918 1907 2918 
Q 1677 2918 1481 2835 
Q 1286 2752 1171 2611 
Q 1056 2470 1056 2285 
L 1056 1056 
Q 1056 845 1171 694 
Q 1286 544 1481 464 
Q 1677 384 1907 384 
z
" transform="scale(0.015625)"/>
       <path id="IBMPlexSans-Regular-28" d="M 531 1997 
Q 531 2618 684 3165 
Q 838 3712 1100 4150 
Q 1363 4589 1690 4864 
L 2176 4864 
Q 1824 4544 1561 4109 
Q 1299 3674 1155 3194 
Q 1011 2714 1011 2266 
L 1011 1715 
Q 1011 1267 1158 784 
Q 1306 301 1568 -134 
Q 1830 -570 2176 -877 
L 1690 -877 
Q 1376 -608 1110 -173 
Q 845 262 688 819 
Q 531 1376 531 1997 
z
" transform="scale(0.015625)"/>
       <path id="IBMPlexSans-Regular-68" d="M 544 0 
L 544 4736 
L 1056 4736 
L 1056 2765 
L 1082 2765 
Q 1203 3046 1424 3212 
Q 1645 3379 2016 3379 
Q 2528 3379 2825 3049 
Q 3123 2720 3123 2118 
L 3123 0 
L 2611 0 
L 2611 2029 
Q 2611 2470 2422 2694 
Q 2234 2918 1862 2918 
Q 1658 2918 1472 2851 
Q 1286 2784 1171 2643 
Q 1056 2502 1056 2291 
L 1056 0 
L 544 0 
z
" transform="scale(0.015625)"/>
       <path id="IBMPlexSans-Regular-6c" d="M 1542 0 
L 1088 0 
Q 826 0 685 150 
Q 544 301 544 531 
L 544 4736 
L 1056 4736 
L 1056 448 
L 1542 448 
L 1542 0 
z
" transform="scale(0.015625)"/>
       <path id="IBMPlexSans-Regular-75" d="M 2579 0 
L 2579 538 
L 2554 538 
Q 2458 301 2250 112 
Q 2042 -77 1626 -77 
Q 1120 -77 816 252 
Q 512 582 512 1184 
L 512 3302 
L 1024 3302 
L 1024 1274 
Q 1024 832 1216 608 
Q 1408 384 1779 384 
Q 1984 384 2166 451 
Q 2349 518 2464 659 
Q 2579 800 2579 1018 
L 2579 3302 
L 3091 3302 
L 3091 0 
L 2579 0 
z
" transform="scale(0.015625)"/>
       <path id="IBMPlexSans-Regular-29" d="M 1613 1997 
Q 1613 1376 1456 819 
Q 1299 262 1036 -173 
Q 774 -608 454 -877 
L -32 -877 
Q 314 -570 576 -134 
Q 838 301 985 784 
Q 1133 1267 1133 1715 
L 1133 2266 
Q 1133 2714 989 3194 
Q 845 3674 585 4109 
Q 326 4544 -32 4864 
L 454 4864 
Q 781 4589 1043 4150 
Q 1306 3712 1459 3165 
Q 1613 2618 1613 1997 
z
" transform="scale(0.015625)"/>
      </defs>
      <use xlink:href="#IBMPlexSans-Regular-64"/>
      <use xlink:href="#IBMPlexSans-Regular-65" transform="translate(57.999985 0)"/>
      <use xlink:href="#IBMPlexSans-Regular-65" transform="translate(112.899979 0)"/>
      <use xlink:href="#IBMPlexSans-Regular-70" transform="translate(167.799973 0)"/>
      <use xlink:href="#IBMPlexSans-Regular-20" transform="translate(225.799957 0)"/>
      <use xlink:href="#IBMPlexSans-Regular-28" transform="translate(249.399948 0)"/>
      <use xlink:href="#IBMPlexSans-Regular-68" transform="translate(282.899933 0)"/>
      <use xlink:href="#IBMPlexSans-Regular-65" transform="translate(339.699921 0)"/>
      <use xlink:href="#IBMPlexSans-Regular-6c" transform="translate(394.599915 0)"/>
      <use xlink:href="#IBMPlexSans-Regular-64" transform="translate(421.799911 0)"/>
      <use xlink:href="#IBMPlexSans-Regular-20" transform="translate(479.799896 0)"/>
      <use xlink:href="#IBMPlexSans-Regular-6f" transform="translate(503.399887 0)"/>
      <use xlink:href="#IBMPlexSans-Regular-75" transform="translate(559.399872 0)"/>
      <use xlink:href="#IBMPlexSans-Regular-74" transform="translate(616.19986 0)"/>
      <use xlink:href="#IBMPlexSans-Regular-29" transform="translate(651.29985 0)"/>
     </g>
    </g>
    <g id="line2d_34">
     <defs>
      <path id="m2774c63397" d="M -6 6 
L 6 6 
L 6 -6 
L -6 -6 
z
" style="stroke: #2a78d6; stroke-linejoin: miter"/>
     </defs>
     <g>
      <use xlink:href="#m2774c63397" x="112.24" y="48.4" style="fill: #2a78d6; stroke: #2a78d6; stroke-linejoin: miter"/>
     </g>
    </g>
    <g id="text_13">
     <!-- shallow (held out) -->
     <g transform="translate(129.84 54) scale(0.16 -0.16)">
      <defs>
       <path id="IBMPlexSans-Regular-77" d="M 1082 0 
L 198 3302 
L 698 3302 
L 1050 1875 
L 1402 429 
L 1414 429 
L 1818 1875 
L 2234 3302 
L 2688 3302 
L 3117 1875 
L 3526 429 
L 3539 429 
L 3878 1875 
L 4237 3302 
L 4717 3302 
L 3840 0 
L 3206 0 
L 2746 1587 
L 2458 2592 
L 2445 2592 
L 2163 1587 
L 1702 0 
L 1082 0 
z
" transform="scale(0.015625)"/>
      </defs>
      <use xlink:href="#IBMPlexSans-Regular-73"/>
      <use xlink:href="#IBMPlexSans-Regular-68" transform="translate(48.699997 0)"/>
      <use xlink:href="#IBMPlexSans-Regular-61" transform="translate(105.499985 0)"/>
      <use xlink:href="#IBMPlexSans-Regular-6c" transform="translate(158.899979 0)"/>
      <use xlink:href="#IBMPlexSans-Regular-6c" transform="translate(186.099976 0)"/>
      <use xlink:href="#IBMPlexSans-Regular-6f" transform="translate(213.299973 0)"/>
      <use xlink:href="#IBMPlexSans-Regular-77" transform="translate(269.299957 0)"/>
      <use xlink:href="#IBMPlexSans-Regular-20" transform="translate(346.099945 0)"/>
      <use xlink:href="#IBMPlexSans-Regular-28" transform="translate(369.699936 0)"/>
      <use xlink:href="#IBMPlexSans-Regular-68" transform="translate(403.199921 0)"/>
      <use xlink:href="#IBMPlexSans-Regular-65" transform="translate(459.999908 0)"/>
      <use xlink:href="#IBMPlexSans-Regular-6c" transform="translate(514.899902 0)"/>
      <use xlink:href="#IBMPlexSans-Regular-64" transform="translate(542.099899 0)"/>
      <use xlink:href="#IBMPlexSans-Regular-20" transform="translate(600.099884 0)"/>
      <use xlink:href="#IBMPlexSans-Regular-6f" transform="translate(623.699875 0)"/>
      <use xlink:href="#IBMPlexSans-Regular-75" transform="translate(679.69986 0)"/>
      <use xlink:href="#IBMPlexSans-Regular-74" transform="translate(736.499847 0)"/>
      <use xlink:href="#IBMPlexSans-Regular-29" transform="translate(771.599838 0)"/>
     </g>
    </g>
   </g>
  </g>
 </g>
 <defs>
  <clipPath id="p49fb77f470">
   <rect x="88.24" y="10.8" width="257.555906" height="257.555906"/>
  </clipPath>
 </defs>
</svg>
