<?xml version="1.0" encoding="utf-8" standalone="no"?>
<!DOCTYPE svg PUBLIC "-//W3C//DTD SVG 1.1//EN"
  "http://www.w3.org/Graphics/SVG/1.1/DTD/svg11.dtd">
<svg xmlns:xlink="http://www.w3.org/1999/xlink" width="925.016583pt" height="631.106187pt" viewBox="0 0 925.016583 631.106187" xmlns="http://www.w3.org/2000/svg" version="1.1">
 <metadata>
  <rdf:RDF xmlns:dc="http://purl.org/dc/elements/1.1/" xmlns:cc="http://creativecommons.org/ns#" xmlns:rdf="http://www.w3.org/1999/02/22-rdf-syntax-ns#">
   <cc:Work>
    <dc:type rdf:resource="http://purl.org/dc/dcmitype/StillImage"/>
    <dc:date>2026-09-23T08:40:58.934942</dc:date>
    <dc:format>image/svg+xml</dc:format>
    <dc:creator>
     <cc:Agent>
      <dc:title>Matplotlib v3.10.9, https://matplotlib.org/</dc:title>
     </cc:Agent>
    </dc:creator>
   </cc:Work>
  </rdf:RDF>
 </metadata>
 <defs>
  <style type="text/css">*{stroke-linejoin: round; stroke-linecap: butt}</style>
 </defs>
 <g id="figure_1">
  <g id="patch_1">
   <path d="M -0 631.106187 
L 925.016583 631.106187 
L 925.016583 0 
L -0 0 
L -0 631.106187 
z
" style="fill: none"/>
  </g>
  <g id="axes_1">
   <g id="patch_2">
    <path d="M 328.540625 550.224 
L 877.753223 550.224 
L 877.753223 18 
L 328.540625 18 
L 328.540625 550.224 
z
" style="fill: none"/>
   </g>
   <g id="matplotlib.axis_1">
    <g id="xtick_1">
     <g id="line2d_1">
      <path d="M 328.540625 550.224 
L 328.540625 18 
" clip-path="url(#pe5c2f054b5)" style="fill: none; stroke: #e3e6ec; stroke-width: 1.2; stroke-linecap: square"/>
     </g>
     <g id="line2d_2">
      <defs>
       <path id="mbe8ce130a6" d="M 0 0 
L 0 3.5 
" style="stroke: #4a5268; stroke-width: 1.4"/>
      </defs>
      <g>
       <use xlink:href="#mbe8ce130a6" x="328.540625" y="550.224" style="fill: #4a5268; stroke: #4a5268; stroke-width: 1.4"/>
      </g>
     </g>
     <g id="text_1">
      <!-- 0.00 -->
      <g style="fill: #4a5268" transform="translate(299.097969 576.8665) scale(0.27 -0.27)">
       <defs>
        <path id="Inter-Regular-30" d="M 2019 -63 
Q 1241 -63 811 562 
Q 381 1188 381 2325 
Q 381 3456 814 4087 
Q 1247 4719 2019 4719 
Q 2794 4719 3225 4087 
Q 3656 3456 3656 2325 
Q 3656 1188 3228 562 
Q 2800 -63 2019 -63 
z
M 2019 456 
Q 2531 456 2807 948 
Q 3084 1441 3084 2325 
Q 3084 3216 2807 3709 
Q 2531 4203 2019 4203 
Q 1509 4203 1231 3708 
Q 953 3213 953 2325 
Q 953 1441 1231 948 
Q 1509 456 2019 456 
z
" transform="scale(0.015625)"/>
        <path id="Inter-Regular-2e" d="M 922 -41 
Q 747 -41 623 82 
Q 500 206 500 381 
Q 500 556 623 679 
Q 747 803 922 803 
Q 1097 803 1220 679 
Q 1344 556 1344 381 
Q 1344 206 1220 82 
Q 1097 -41 922 -41 
z
" transform="scale(0.015625)"/>
       </defs>
       <use xlink:href="#Inter-Regular-30"/>
       <use xlink:href="#Inter-Regular-2e" transform="translate(63.085938 0)"/>
       <use xlink:href="#Inter-Regular-30" transform="translate(91.894531 0)"/>
       <use xlink:href="#Inter-Regular-30" transform="translate(154.980469 0)"/>
      </g>
     </g>
    </g>
    <g id="xtick_2">
     <g id="line2d_3">
      <path d="M 420.076058 550.224 
L 420.076058 18 
" clip-path="url(#pe5c2f054b5)" style="fill: none; stroke: #e3e6ec; stroke-width: 1.2; stroke-linecap: square"/>
     </g>
     <g id="line2d_4">
      <g>
       <use xlink:href="#mbe8ce130a6" x="420.076058" y="550.224" style="fill: #4a5268; stroke: #4a5268; stroke-width: 1.4"/>
      </g>
     </g>
     <g id="text_2">
      <!-- 0.05 -->
      <g style="fill: #4a5268" transform="translate(391.141761 576.8665) scale(0.27 -0.27)">
       <defs>
        <path id="Inter-Regular-35" d="M 1863 -63 
Q 1453 -63 1128 98 
Q 803 259 609 539 
Q 416 819 400 1175 
L 975 1175 
Q 1003 863 1258 661 
Q 1513 459 1863 459 
Q 2144 459 2364 590 
Q 2584 722 2709 953 
Q 2834 1184 2834 1478 
Q 2834 1778 2703 2015 
Q 2572 2253 2345 2389 
Q 2119 2525 1825 2525 
Q 1609 2525 1387 2456 
Q 1166 2388 1028 2281 
L 472 2350 
L 747 4656 
L 3197 4656 
L 3197 4134 
L 1247 4134 
L 1088 2775 
L 1113 2775 
Q 1256 2894 1475 2970 
Q 1694 3047 1934 3047 
Q 2363 3047 2697 2845 
Q 3031 2644 3223 2291 
Q 3416 1938 3416 1488 
Q 3416 1041 3214 691 
Q 3013 341 2663 139 
Q 2313 -63 1863 -63 
z
" transform="scale(0.015625)"/>
       </defs>
       <use xlink:href="#Inter-Regular-30"/>
       <use xlink:href="#Inter-Regular-2e" transform="translate(63.085938 0)"/>
       <use xlink:href="#Inter-Regular-30" transform="translate(91.894531 0)"/>
       <use xlink:href="#Inter-Regular-35" transform="translate(154.980469 0)"/>
      </g>
     </g>
    </g>
    <g id="xtick_3">
     <g id="line2d_5">
      <path d="M 511.611491 550.224 
L 511.611491 18 
" clip-path="url(#pe5c2f054b5)" style="fill: none; stroke: #e3e6ec; stroke-width: 1.2; stroke-linecap: square"/>
     </g>
     <g id="line2d_6">
      <g>
       <use xlink:href="#mbe8ce130a6" x="511.611491" y="550.224" style="fill: #4a5268; stroke: #4a5268; stroke-width: 1.4"/>
      </g>
     </g>
     <g id="text_3">
      <!-- 0.10 -->
      <g style="fill: #4a5268" transform="translate(485.195788 576.8665) scale(0.27 -0.27)">
       <defs>
        <path id="Inter-Regular-31" d="M 2041 4656 
L 2041 0 
L 1456 0 
L 1456 4106 
L 1425 4106 
L 300 3272 
L 300 3909 
L 1313 4656 
L 2041 4656 
z
" transform="scale(0.015625)"/>
       </defs>
       <use xlink:href="#Inter-Regular-30"/>
       <use xlink:href="#Inter-Regular-2e" transform="translate(63.085938 0)"/>
       <use xlink:href="#Inter-Regular-31" transform="translate(91.894531 0)"/>
       <use xlink:href="#Inter-Regular-30" transform="translate(132.568359 0)"/>
      </g>
     </g>
    </g>
    <g id="xtick_4">
     <g id="line2d_7">
      <path d="M 603.146924 550.224 
L 603.146924 18 
" clip-path="url(#pe5c2f054b5)" style="fill: none; stroke: #e3e6ec; stroke-width: 1.2; stroke-linecap: square"/>
     </g>
     <g id="line2d_8">
      <g>
       <use xlink:href="#mbe8ce130a6" x="603.146924" y="550.224" style="fill: #4a5268; stroke: #4a5268; stroke-width: 1.4"/>
      </g>
     </g>
     <g id="text_4">
      <!-- 0.15 -->
      <g style="fill: #4a5268" transform="translate(577.23958 576.8665) scale(0.27 -0.27)">
       <use xlink:href="#Inter-Regular-30"/>
       <use xlink:href="#Inter-Regular-2e" transform="translate(63.085938 0)"/>
       <use xlink:href="#Inter-Regular-31" transform="translate(91.894531 0)"/>
       <use xlink:href="#Inter-Regular-35" transform="translate(132.568359 0)"/>
      </g>
     </g>
    </g>
    <g id="xtick_5">
     <g id="line2d_9">
      <path d="M 694.682357 550.224 
L 694.682357 18 
" clip-path="url(#pe5c2f054b5)" style="fill: none; stroke: #e3e6ec; stroke-width: 1.2; stroke-linecap: square"/>
     </g>
     <g id="line2d_10">
      <g>
       <use xlink:href="#mbe8ce130a6" x="694.682357" y="550.224" style="fill: #4a5268; stroke: #4a5268; stroke-width: 1.4"/>
      </g>
     </g>
     <g id="text_5">
      <!-- 0.20 -->
      <g style="fill: #4a5268" transform="translate(665.524467 576.8665) scale(0.27 -0.27)">
       <defs>
        <path id="Inter-Regular-32" d="M 481 0 
L 481 428 
L 2028 2106 
Q 2288 2388 2459 2600 
Q 2631 2813 2718 3005 
Q 2806 3197 2806 3413 
Q 2806 3778 2554 3990 
Q 2303 4203 1931 4203 
Q 1534 4203 1298 3965 
Q 1063 3728 1063 3334 
L 494 3334 
Q 494 3747 684 4059 
Q 875 4372 1203 4545 
Q 1531 4719 1947 4719 
Q 2363 4719 2683 4545 
Q 3003 4372 3186 4078 
Q 3369 3784 3369 3419 
Q 3369 3166 3278 2927 
Q 3188 2688 2959 2384 
Q 2731 2081 2319 1644 
L 1300 559 
L 1300 522 
L 3447 522 
L 3447 0 
L 481 0 
z
" transform="scale(0.015625)"/>
       </defs>
       <use xlink:href="#Inter-Regular-30"/>
       <use xlink:href="#Inter-Regular-2e" transform="translate(63.085938 0)"/>
       <use xlink:href="#Inter-Regular-32" transform="translate(91.894531 0)"/>
       <use xlink:href="#Inter-Regular-30" transform="translate(152.880859 0)"/>
      </g>
     </g>
    </g>
    <g id="xtick_6">
     <g id="line2d_11">
      <path d="M 786.21779 550.224 
L 786.21779 18 
" clip-path="url(#pe5c2f054b5)" style="fill: none; stroke: #e3e6ec; stroke-width: 1.2; stroke-linecap: square"/>
     </g>
     <g id="line2d_12">
      <g>
       <use xlink:href="#mbe8ce130a6" x="786.21779" y="550.224" style="fill: #4a5268; stroke: #4a5268; stroke-width: 1.4"/>
      </g>
     </g>
     <g id="text_6">
      <!-- 0.25 -->
      <g style="fill: #4a5268" transform="translate(757.568259 576.8665) scale(0.27 -0.27)">
       <use xlink:href="#Inter-Regular-30"/>
       <use xlink:href="#Inter-Regular-2e" transform="translate(63.085938 0)"/>
       <use xlink:href="#Inter-Regular-32" transform="translate(91.894531 0)"/>
       <use xlink:href="#Inter-Regular-35" transform="translate(152.880859 0)"/>
      </g>
     </g>
    </g>
    <g id="xtick_7">
     <g id="line2d_13">
      <path d="M 877.753223 550.224 
L 877.753223 18 
" clip-path="url(#pe5c2f054b5)" style="fill: none; stroke: #e3e6ec; stroke-width: 1.2; stroke-linecap: square"/>
     </g>
     <g id="line2d_14">
      <g>
       <use xlink:href="#mbe8ce130a6" x="877.753223" y="550.224" style="fill: #4a5268; stroke: #4a5268; stroke-width: 1.4"/>
      </g>
     </g>
     <g id="text_7">
      <!-- 0.30 -->
      <g style="fill: #4a5268" transform="translate(848.489864 576.8665) scale(0.27 -0.27)">
       <defs>
        <path id="Inter-Regular-33" d="M 1984 -63 
Q 1528 -63 1175 93 
Q 822 250 614 528 
Q 406 806 391 1175 
L 991 1175 
Q 1016 844 1297 651 
Q 1578 459 1975 459 
Q 2413 459 2698 684 
Q 2984 909 2984 1272 
Q 2984 1650 2703 1889 
Q 2422 2128 1903 2128 
L 1525 2128 
L 1525 2644 
L 1903 2644 
Q 2313 2644 2567 2861 
Q 2822 3078 2822 3438 
Q 2822 3784 2597 3993 
Q 2372 4203 1991 4203 
Q 1753 4203 1545 4117 
Q 1338 4031 1205 3872 
Q 1072 3713 1063 3484 
L 491 3484 
Q 503 3850 709 4128 
Q 916 4406 1255 4562 
Q 1594 4719 2003 4719 
Q 2438 4719 2752 4544 
Q 3066 4369 3234 4084 
Q 3403 3800 3403 3469 
Q 3403 3075 3195 2800 
Q 2988 2525 2631 2419 
L 2631 2381 
Q 3078 2309 3325 2007 
Q 3572 1706 3572 1266 
Q 3572 884 3365 584 
Q 3159 284 2800 110 
Q 2441 -63 1984 -63 
z
" transform="scale(0.015625)"/>
       </defs>
       <use xlink:href="#Inter-Regular-30"/>
       <use xlink:href="#Inter-Regular-2e" transform="translate(63.085938 0)"/>
       <use xlink:href="#Inter-Regular-33" transform="translate(91.894531 0)"/>
       <use xlink:href="#Inter-Regular-30" transform="translate(153.662109 0)"/>
      </g>
     </g>
    </g>
    <g id="text_8">
     <!-- RMSE of $\beta_{max}$ on the unseen surface (12 folds) -->
     <g style="fill: #4a5268" transform="translate(305.606924 607.436187) scale(0.27 -0.27)">
      <defs>
       <path id="Inter-Regular-52" d="M 563 0 
L 563 4656 
L 2156 4656 
Q 2700 4656 3051 4470 
Q 3403 4284 3573 3959 
Q 3744 3634 3744 3219 
Q 3744 2756 3533 2412 
Q 3322 2069 2881 1916 
L 3925 0 
L 3238 0 
L 2269 1809 
Q 2216 1806 2159 1806 
L 1156 1806 
L 1156 0 
L 563 0 
z
M 1156 2334 
L 2131 2334 
Q 2681 2334 2917 2571 
Q 3153 2809 3153 3219 
Q 3153 3634 2917 3884 
Q 2681 4134 2125 4134 
L 1156 4134 
L 1156 2334 
z
" transform="scale(0.015625)"/>
       <path id="Inter-Regular-4d" d="M 563 0 
L 563 4656 
L 1406 4656 
L 2553 1719 
Q 2619 1550 2716 1247 
Q 2813 944 2897 659 
Q 2978 934 3075 1239 
Q 3172 1544 3241 1719 
L 4372 4656 
L 5219 4656 
L 5219 0 
L 4634 0 
L 4634 2659 
Q 4634 2916 4640 3287 
Q 4647 3659 4656 4022 
Q 4528 3622 4398 3244 
Q 4269 2866 4188 2659 
L 3147 0 
L 2631 0 
L 1575 2659 
Q 1497 2856 1370 3229 
Q 1244 3603 1106 4013 
Q 1113 3681 1120 3304 
Q 1128 2928 1128 2659 
L 1128 0 
L 563 0 
z
" transform="scale(0.015625)"/>
       <path id="Inter-Regular-53" d="M 2053 -81 
Q 1297 -81 850 276 
Q 403 634 363 1219 
L 972 1219 
Q 997 956 1150 786 
Q 1303 616 1542 533 
Q 1781 450 2053 450 
Q 2369 450 2620 553 
Q 2872 656 3019 843 
Q 3166 1031 3166 1278 
Q 3166 1503 3039 1643 
Q 2913 1784 2703 1875 
Q 2494 1966 2244 2034 
L 1681 2194 
Q 1119 2353 806 2650 
Q 494 2947 494 3409 
Q 494 3803 706 4098 
Q 919 4394 1281 4556 
Q 1644 4719 2094 4719 
Q 2553 4719 2906 4556 
Q 3259 4394 3464 4114 
Q 3669 3834 3681 3481 
L 3100 3481 
Q 3059 3822 2775 4008 
Q 2491 4194 2075 4194 
Q 1622 4194 1347 3980 
Q 1072 3766 1072 3438 
Q 1072 3194 1223 3045 
Q 1375 2897 1583 2814 
Q 1791 2731 1959 2684 
L 2425 2556 
Q 2613 2506 2839 2418 
Q 3066 2331 3272 2186 
Q 3478 2041 3611 1817 
Q 3744 1594 3744 1269 
Q 3744 888 3545 581 
Q 3347 275 2969 97 
Q 2591 -81 2053 -81 
z
" transform="scale(0.015625)"/>
       <path id="Inter-Regular-45" d="M 563 0 
L 563 4656 
L 3400 4656 
L 3400 4131 
L 1156 4131 
L 1156 2613 
L 3247 2613 
L 3247 2088 
L 1156 2088 
L 1156 525 
L 3428 525 
L 3428 0 
L 563 0 
z
" transform="scale(0.015625)"/>
       <path id="Inter-Regular-20" transform="scale(0.015625)"/>
       <path id="Inter-Regular-6f" d="M 1916 -75 
Q 1441 -75 1083 150 
Q 725 375 525 781 
Q 325 1188 325 1725 
Q 325 2272 525 2680 
Q 725 3088 1083 3313 
Q 1441 3538 1916 3538 
Q 2394 3538 2753 3313 
Q 3113 3088 3313 2680 
Q 3513 2272 3513 1725 
Q 3513 1188 3313 781 
Q 3113 375 2753 150 
Q 2394 -75 1916 -75 
z
M 1916 428 
Q 2269 428 2497 609 
Q 2725 791 2834 1086 
Q 2944 1381 2944 1725 
Q 2944 2072 2834 2370 
Q 2725 2669 2497 2851 
Q 2269 3034 1916 3034 
Q 1566 3034 1341 2851 
Q 1116 2669 1006 2372 
Q 897 2075 897 1725 
Q 897 1381 1006 1086 
Q 1116 791 1341 609 
Q 1566 428 1916 428 
z
" transform="scale(0.015625)"/>
       <path id="Inter-Regular-66" d="M 2119 3494 
L 2119 3013 
L 1313 3013 
L 1313 0 
L 750 0 
L 750 3013 
L 63 3013 
L 63 3494 
L 750 3494 
L 750 3959 
Q 750 4263 892 4466 
Q 1034 4669 1262 4772 
Q 1491 4875 1744 4875 
Q 1944 4875 2075 4842 
Q 2206 4809 2269 4781 
L 2113 4300 
Q 2069 4316 1998 4334 
Q 1928 4353 1809 4353 
Q 1550 4353 1431 4220 
Q 1313 4088 1313 3834 
L 1313 3494 
L 2119 3494 
z
" transform="scale(0.015625)"/>
       <path id="DejaVuSans-Oblique-3b2" d="M 872 216 
L 572 -1331 
L -6 -1331 
L 928 3478 
Q 1206 4903 2538 4903 
Q 3888 4903 3659 3700 
Q 3503 2844 2894 2531 
Q 3713 2250 3553 1416 
Q 3272 -69 1759 -66 
Q 1097 -63 872 216 
z
M 1019 966 
Q 1259 422 1875 425 
Q 2775 425 2966 1406 
Q 3138 2288 1675 2219 
L 1778 2750 
Q 2909 2731 3106 3750 
Q 3241 4438 2509 4434 
Q 1691 4434 1503 3459 
L 1019 966 
z
" transform="scale(0.015625)"/>
       <path id="DejaVuSans-Oblique-6d" d="M 5747 2113 
L 5338 0 
L 4763 0 
L 5166 2094 
Q 5191 2228 5203 2325 
Q 5216 2422 5216 2491 
Q 5216 2772 5059 2928 
Q 4903 3084 4622 3084 
Q 4203 3084 3875 2770 
Q 3547 2456 3450 1953 
L 3066 0 
L 2491 0 
L 2900 2094 
Q 2925 2209 2937 2307 
Q 2950 2406 2950 2484 
Q 2950 2769 2794 2926 
Q 2638 3084 2363 3084 
Q 1938 3084 1609 2770 
Q 1281 2456 1184 1953 
L 800 0 
L 225 0 
L 909 3500 
L 1484 3500 
L 1375 2956 
Q 1609 3263 1923 3423 
Q 2238 3584 2597 3584 
Q 2978 3584 3223 3384 
Q 3469 3184 3519 2828 
Q 3781 3197 4126 3390 
Q 4472 3584 4856 3584 
Q 5306 3584 5551 3325 
Q 5797 3066 5797 2591 
Q 5797 2488 5784 2364 
Q 5772 2241 5747 2113 
z
" transform="scale(0.015625)"/>
       <path id="DejaVuSans-Oblique-61" d="M 3438 1997 
L 3047 0 
L 2472 0 
L 2578 531 
Q 2325 219 2001 64 
Q 1678 -91 1281 -91 
Q 834 -91 548 182 
Q 263 456 263 884 
Q 263 1497 752 1853 
Q 1241 2209 2100 2209 
L 2900 2209 
L 2931 2363 
Q 2938 2388 2941 2417 
Q 2944 2447 2944 2509 
Q 2944 2788 2717 2942 
Q 2491 3097 2081 3097 
Q 1800 3097 1504 3025 
Q 1209 2953 897 2809 
L 997 3341 
Q 1322 3463 1633 3523 
Q 1944 3584 2234 3584 
Q 2853 3584 3176 3315 
Q 3500 3047 3500 2534 
Q 3500 2431 3484 2292 
Q 3469 2153 3438 1997 
z
M 2816 1759 
L 2241 1759 
Q 1534 1759 1195 1570 
Q 856 1381 856 984 
Q 856 709 1029 553 
Q 1203 397 1509 397 
Q 1978 397 2328 733 
Q 2678 1069 2791 1631 
L 2816 1759 
z
" transform="scale(0.015625)"/>
       <path id="DejaVuSans-Oblique-78" d="M 3841 3500 
L 2234 1784 
L 3219 0 
L 2559 0 
L 1819 1388 
L 531 0 
L -166 0 
L 1556 1844 
L 641 3500 
L 1300 3500 
L 1972 2234 
L 3144 3500 
L 3841 3500 
z
" transform="scale(0.015625)"/>
       <path id="Inter-Regular-6e" d="M 1056 2094 
L 1056 0 
L 494 0 
L 494 3494 
L 1034 3494 
L 1038 2847 
Q 1206 3219 1479 3378 
Q 1753 3538 2106 3538 
Q 2638 3538 2963 3209 
Q 3288 2881 3288 2219 
L 3288 0 
L 2725 0 
L 2725 2172 
Q 2725 2575 2514 2803 
Q 2303 3031 1938 3031 
Q 1559 3031 1307 2786 
Q 1056 2541 1056 2094 
z
" transform="scale(0.015625)"/>
       <path id="Inter-Regular-74" d="M 1869 3494 
L 1869 3013 
L 1150 3013 
L 1150 906 
Q 1150 672 1245 564 
Q 1341 456 1563 456 
Q 1616 456 1698 468 
Q 1781 481 1850 494 
L 1966 19 
Q 1878 -13 1767 -28 
Q 1656 -44 1547 -44 
Q 1094 -44 841 195 
Q 588 434 588 863 
L 588 3013 
L 63 3013 
L 63 3494 
L 588 3494 
L 588 4325 
L 1150 4325 
L 1150 3494 
L 1869 3494 
z
" transform="scale(0.015625)"/>
       <path id="Inter-Regular-68" d="M 1056 2094 
L 1056 0 
L 494 0 
L 494 4656 
L 1056 4656 
L 1056 2888 
Q 1228 3238 1495 3388 
Q 1763 3538 2106 3538 
Q 2638 3538 2964 3209 
Q 3291 2881 3291 2219 
L 3291 0 
L 2725 0 
L 2725 2172 
Q 2725 2575 2514 2803 
Q 2303 3031 1938 3031 
Q 1559 3031 1307 2786 
Q 1056 2541 1056 2094 
z
" transform="scale(0.015625)"/>
       <path id="Inter-Regular-65" d="M 1963 -75 
Q 1456 -75 1089 150 
Q 722 375 523 778 
Q 325 1181 325 1719 
Q 325 2256 519 2665 
Q 713 3075 1067 3306 
Q 1422 3538 1897 3538 
Q 2175 3538 2445 3445 
Q 2716 3353 2936 3148 
Q 3156 2944 3287 2609 
Q 3419 2275 3419 1791 
L 3419 1556 
L 894 1556 
Q 916 1009 1208 717 
Q 1500 425 1966 425 
Q 2275 425 2498 561 
Q 2722 697 2819 963 
L 3363 813 
Q 3241 416 2870 170 
Q 2500 -75 1963 -75 
z
M 897 2031 
L 2847 2031 
Q 2806 2478 2567 2758 
Q 2328 3038 1897 3038 
Q 1597 3038 1380 2897 
Q 1163 2756 1038 2528 
Q 913 2300 897 2031 
z
" transform="scale(0.015625)"/>
       <path id="Inter-Regular-75" d="M 1678 -44 
Q 1150 -44 822 284 
Q 494 613 494 1275 
L 494 3494 
L 1056 3494 
L 1056 1322 
Q 1056 919 1268 691 
Q 1481 463 1847 463 
Q 2222 463 2473 708 
Q 2725 953 2725 1400 
L 2725 3494 
L 3291 3494 
L 3291 0 
L 2747 0 
L 2747 653 
Q 2575 272 2298 114 
Q 2022 -44 1678 -44 
z
" transform="scale(0.015625)"/>
       <path id="Inter-Regular-73" d="M 1681 -75 
Q 1144 -75 787 159 
Q 431 394 338 847 
L 872 975 
Q 947 688 1155 553 
Q 1363 419 1675 419 
Q 2041 419 2258 575 
Q 2475 731 2475 947 
Q 2475 1306 1963 1428 
L 1381 1566 
Q 444 1788 444 2519 
Q 444 2819 612 3048 
Q 781 3278 1073 3408 
Q 1366 3538 1738 3538 
Q 2278 3538 2576 3302 
Q 2875 3066 2994 2697 
L 2484 2566 
Q 2413 2753 2245 2906 
Q 2078 3059 1741 3059 
Q 1428 3059 1220 2915 
Q 1013 2772 1013 2553 
Q 1013 2359 1153 2242 
Q 1294 2125 1600 2053 
L 2128 1928 
Q 2603 1816 2831 1580 
Q 3059 1344 3059 984 
Q 3059 678 2886 439 
Q 2713 200 2402 62 
Q 2091 -75 1681 -75 
z
" transform="scale(0.015625)"/>
       <path id="Inter-Regular-72" d="M 494 0 
L 494 3494 
L 1038 3494 
L 1038 2956 
L 1075 2956 
Q 1172 3222 1420 3383 
Q 1669 3544 1981 3544 
Q 2044 3544 2130 3541 
Q 2216 3538 2266 3534 
L 2266 2969 
Q 2241 2975 2141 2987 
Q 2041 3000 1928 3000 
Q 1550 3000 1303 2770 
Q 1056 2541 1056 2188 
L 1056 0 
L 494 0 
z
" transform="scale(0.015625)"/>
       <path id="Inter-Regular-61" d="M 1472 -81 
Q 1141 -81 870 44 
Q 600 169 440 409 
Q 281 650 281 994 
Q 281 1294 400 1481 
Q 519 1669 717 1776 
Q 916 1884 1156 1937 
Q 1397 1991 1641 2022 
Q 1953 2063 2150 2084 
Q 2347 2106 2442 2159 
Q 2538 2213 2538 2341 
L 2538 2359 
Q 2538 2684 2353 2864 
Q 2169 3044 1806 3044 
Q 1428 3044 1215 2880 
Q 1003 2716 922 2531 
L 381 2709 
Q 516 3028 744 3208 
Q 972 3388 1247 3463 
Q 1522 3538 1791 3538 
Q 1966 3538 2189 3495 
Q 2413 3453 2620 3328 
Q 2828 3203 2964 2958 
Q 3100 2713 3100 2303 
L 3100 0 
L 2547 0 
L 2547 475 
L 2509 475 
Q 2450 353 2319 223 
Q 2188 94 1978 6 
Q 1769 -81 1472 -81 
z
M 1569 416 
Q 1881 416 2097 537 
Q 2313 659 2425 854 
Q 2538 1050 2538 1263 
L 2538 1747 
Q 2503 1706 2387 1673 
Q 2272 1641 2123 1616 
Q 1975 1591 1836 1573 
Q 1697 1556 1616 1547 
Q 1413 1522 1236 1461 
Q 1059 1400 953 1283 
Q 847 1166 847 966 
Q 847 694 1051 555 
Q 1256 416 1569 416 
z
" transform="scale(0.015625)"/>
       <path id="Inter-Regular-63" d="M 1916 -75 
Q 1441 -75 1083 150 
Q 725 375 525 781 
Q 325 1188 325 1725 
Q 325 2272 525 2680 
Q 725 3088 1083 3313 
Q 1441 3538 1916 3538 
Q 2422 3538 2805 3283 
Q 3188 3028 3331 2572 
L 2791 2419 
Q 2713 2688 2486 2861 
Q 2259 3034 1916 3034 
Q 1566 3034 1341 2851 
Q 1116 2669 1006 2372 
Q 897 2075 897 1725 
Q 897 1381 1006 1086 
Q 1116 791 1341 609 
Q 1566 428 1916 428 
Q 2269 428 2498 608 
Q 2728 788 2806 1072 
L 3344 919 
Q 3203 453 2815 189 
Q 2428 -75 1916 -75 
z
" transform="scale(0.015625)"/>
       <path id="Inter-Regular-28" d="M 681 1897 
Q 681 2406 786 2964 
Q 891 3522 1072 4039 
Q 1253 4556 1488 4941 
L 2034 4941 
Q 1794 4450 1617 3919 
Q 1441 3388 1347 2870 
Q 1253 2353 1253 1897 
Q 1253 1275 1442 617 
Q 1631 -41 2034 -872 
L 1488 -872 
Q 1091 -194 886 509 
Q 681 1213 681 1897 
z
" transform="scale(0.015625)"/>
       <path id="Inter-Regular-6c" d="M 1056 4656 
L 1056 0 
L 494 0 
L 494 4656 
L 1056 4656 
z
" transform="scale(0.015625)"/>
       <path id="Inter-Regular-64" d="M 1803 -75 
Q 1369 -75 1034 147 
Q 700 369 512 775 
Q 325 1181 325 1738 
Q 325 2291 514 2695 
Q 703 3100 1037 3319 
Q 1372 3538 1806 3538 
Q 2147 3538 2347 3425 
Q 2547 3313 2655 3170 
Q 2763 3028 2819 2934 
L 2863 2934 
L 2863 4656 
L 3425 4656 
L 3425 0 
L 2881 0 
L 2881 541 
L 2819 541 
Q 2763 444 2652 298 
Q 2541 153 2339 39 
Q 2138 -75 1803 -75 
z
M 1888 428 
Q 2363 428 2616 793 
Q 2869 1159 2869 1744 
Q 2869 2322 2620 2678 
Q 2372 3034 1888 3034 
Q 1556 3034 1336 2862 
Q 1116 2691 1006 2398 
Q 897 2106 897 1744 
Q 897 1378 1008 1079 
Q 1119 781 1341 604 
Q 1563 428 1888 428 
z
" transform="scale(0.015625)"/>
       <path id="Inter-Regular-29" d="M 300 -872 
Q 716 -16 898 639 
Q 1081 1294 1081 1897 
Q 1081 2353 987 2870 
Q 894 3388 719 3919 
Q 544 4450 300 4941 
L 847 4941 
Q 1081 4556 1264 4039 
Q 1447 3522 1550 2962 
Q 1653 2403 1653 1897 
Q 1653 1200 1445 497 
Q 1238 -206 847 -872 
L 300 -872 
z
" transform="scale(0.015625)"/>
      </defs>
      <use xlink:href="#Inter-Regular-52" transform="translate(0 0.796875)"/>
      <use xlink:href="#Inter-Regular-4d" transform="translate(64.355469 0.796875)"/>
      <use xlink:href="#Inter-Regular-53" transform="translate(154.6875 0.796875)"/>
      <use xlink:href="#Inter-Regular-45" transform="translate(218.847656 0.796875)"/>
      <use xlink:href="#Inter-Regular-20" transform="translate(278.955078 0.796875)"/>
      <use xlink:href="#Inter-Regular-6f" transform="translate(307.080078 0.796875)"/>
      <use xlink:href="#Inter-Regular-66" transform="translate(367.041016 0.796875)"/>
      <use xlink:href="#Inter-Regular-20" transform="translate(404.052734 0.796875)"/>
      <use xlink:href="#DejaVuSans-Oblique-3b2" transform="translate(432.177734 0.796875)"/>
      <use xlink:href="#DejaVuSans-Oblique-6d" transform="translate(495.996094 -15.609375) scale(0.7)"/>
      <use xlink:href="#DejaVuSans-Oblique-61" transform="translate(564.18457 -15.609375) scale(0.7)"/>
      <use xlink:href="#DejaVuSans-Oblique-78" transform="translate(607.080078 -15.609375) scale(0.7)"/>
      <use xlink:href="#Inter-Regular-20" transform="translate(651.240234 0.796875)"/>
      <use xlink:href="#Inter-Regular-6f" transform="translate(679.365234 0.796875)"/>
      <use xlink:href="#Inter-Regular-6e" transform="translate(739.326172 0.796875)"/>
      <use xlink:href="#Inter-Regular-20" transform="translate(798.408203 0.796875)"/>
      <use xlink:href="#Inter-Regular-74" transform="translate(826.533203 0.796875)"/>
      <use xlink:href="#Inter-Regular-68" transform="translate(859.248047 0.796875)"/>
      <use xlink:href="#Inter-Regular-65" transform="translate(918.378906 0.796875)"/>
      <use xlink:href="#Inter-Regular-20" transform="translate(976.679688 0.796875)"/>
      <use xlink:href="#Inter-Regular-75" transform="translate(1004.804688 0.796875)"/>
      <use xlink:href="#Inter-Regular-6e" transform="translate(1063.935547 0.796875)"/>
      <use xlink:href="#Inter-Regular-73" transform="translate(1123.017578 0.796875)"/>
      <use xlink:href="#Inter-Regular-65" transform="translate(1175.800781 0.796875)"/>
      <use xlink:href="#Inter-Regular-65" transform="translate(1234.101562 0.796875)"/>
      <use xlink:href="#Inter-Regular-6e" transform="translate(1292.402344 0.796875)"/>
      <use xlink:href="#Inter-Regular-20" transform="translate(1351.484375 0.796875)"/>
      <use xlink:href="#Inter-Regular-73" transform="translate(1379.609375 0.796875)"/>
      <use xlink:href="#Inter-Regular-75" transform="translate(1432.392578 0.796875)"/>
      <use xlink:href="#Inter-Regular-72" transform="translate(1491.523438 0.796875)"/>
      <use xlink:href="#Inter-Regular-66" transform="translate(1529.169922 0.796875)"/>
      <use xlink:href="#Inter-Regular-61" transform="translate(1566.181641 0.796875)"/>
      <use xlink:href="#Inter-Regular-63" transform="translate(1622.333984 0.796875)"/>
      <use xlink:href="#Inter-Regular-65" transform="translate(1679.462891 0.796875)"/>
      <use xlink:href="#Inter-Regular-20" transform="translate(1737.763672 0.796875)"/>
      <use xlink:href="#Inter-Regular-28" transform="translate(1765.888672 0.796875)"/>
      <use xlink:href="#Inter-Regular-31" transform="translate(1802.363281 0.796875)"/>
      <use xlink:href="#Inter-Regular-32" transform="translate(1843.037109 0.796875)"/>
      <use xlink:href="#Inter-Regular-20" transform="translate(1904.023438 0.796875)"/>
      <use xlink:href="#Inter-Regular-66" transform="translate(1932.148438 0.796875)"/>
      <use xlink:href="#Inter-Regular-6f" transform="translate(1969.160156 0.796875)"/>
      <use xlink:href="#Inter-Regular-6c" transform="translate(2029.121094 0.796875)"/>
      <use xlink:href="#Inter-Regular-64" transform="translate(2053.339844 0.796875)"/>
      <use xlink:href="#Inter-Regular-73" transform="translate(2114.570312 0.796875)"/>
      <use xlink:href="#Inter-Regular-29" transform="translate(2167.353516 0.796875)"/>
     </g>
    </g>
   </g>
   <g id="matplotlib.axis_2">
    <g id="ytick_1">
     <g id="line2d_15"/>
     <g id="text_9">
      <!-- Gaussian process -->
      <g style="fill: #14213d" transform="translate(89.073281 52.555359) scale(0.27 -0.27)">
       <defs>
        <path id="Inter-Bold-47" d="M 2484 -63 
Q 1831 -63 1337 226 
Q 844 516 569 1050 
Q 294 1584 294 2322 
Q 294 3075 580 3612 
Q 866 4150 1358 4434 
Q 1850 4719 2463 4719 
Q 2988 4719 3413 4519 
Q 3838 4319 4109 3967 
Q 4381 3616 4447 3156 
L 3478 3156 
Q 3378 3491 3122 3681 
Q 2866 3872 2478 3872 
Q 1941 3872 1602 3472 
Q 1263 3072 1263 2331 
Q 1263 1591 1597 1187 
Q 1931 784 2491 784 
Q 2988 784 3272 1046 
Q 3556 1309 3569 1756 
L 2556 1756 
L 2556 2481 
L 4494 2481 
L 4494 1900 
Q 4494 1288 4234 848 
Q 3975 409 3522 173 
Q 3069 -63 2484 -63 
z
" transform="scale(0.015625)"/>
        <path id="Inter-Bold-61" d="M 1375 -69 
Q 875 -69 544 195 
Q 213 459 213 978 
Q 213 1369 400 1591 
Q 588 1813 888 1916 
Q 1188 2019 1531 2050 
Q 1981 2094 2179 2142 
Q 2378 2191 2378 2363 
L 2378 2378 
Q 2378 2600 2236 2722 
Q 2094 2844 1831 2844 
Q 1559 2844 1393 2726 
Q 1228 2609 1172 2441 
L 313 2584 
Q 447 3038 848 3288 
Q 1250 3538 1834 3538 
Q 2209 3538 2548 3419 
Q 2888 3300 3102 3039 
Q 3316 2778 3316 2353 
L 3316 0 
L 2428 0 
L 2428 484 
L 2397 484 
Q 2269 241 2016 86 
Q 1763 -69 1375 -69 
z
M 1641 591 
Q 1969 591 2176 781 
Q 2384 972 2384 1250 
L 2384 1628 
Q 2328 1588 2201 1558 
Q 2075 1528 1934 1504 
Q 1794 1481 1691 1469 
Q 1431 1431 1272 1322 
Q 1113 1213 1113 1003 
Q 1113 800 1261 695 
Q 1409 591 1641 591 
z
" transform="scale(0.015625)"/>
        <path id="Inter-Bold-75" d="M 1603 -44 
Q 1059 -44 729 306 
Q 400 656 400 1272 
L 400 3494 
L 1338 3494 
L 1338 1434 
Q 1338 1109 1506 925 
Q 1675 741 1969 741 
Q 2269 741 2458 933 
Q 2647 1125 2647 1472 
L 2647 3494 
L 3588 3494 
L 3588 0 
L 2700 0 
L 2688 725 
Q 2541 353 2270 154 
Q 2000 -44 1603 -44 
z
" transform="scale(0.015625)"/>
        <path id="Inter-Bold-73" d="M 1788 -69 
Q 1156 -69 745 200 
Q 334 469 244 956 
L 1116 1106 
Q 1250 619 1816 619 
Q 2084 619 2239 720 
Q 2394 822 2394 978 
Q 2394 1244 1944 1338 
L 1341 1463 
Q 334 1669 334 2453 
Q 334 2956 737 3247 
Q 1141 3538 1803 3538 
Q 2425 3538 2794 3284 
Q 3163 3031 3259 2606 
L 2428 2459 
Q 2372 2638 2222 2752 
Q 2072 2866 1816 2866 
Q 1584 2866 1428 2767 
Q 1272 2669 1272 2513 
Q 1272 2381 1373 2289 
Q 1475 2197 1722 2147 
L 2350 2022 
Q 3350 1819 3350 1078 
Q 3350 734 3150 476 
Q 2950 219 2597 75 
Q 2244 -69 1788 -69 
z
" transform="scale(0.015625)"/>
        <path id="Inter-Bold-69" d="M 400 0 
L 400 3494 
L 1338 3494 
L 1338 0 
L 400 0 
z
M 871 3950 
Q 658 3950 508 4090 
Q 358 4231 358 4431 
Q 358 4631 508 4772 
Q 658 4913 871 4913 
Q 1083 4913 1234 4772 
Q 1386 4631 1386 4431 
Q 1386 4231 1234 4090 
Q 1083 3950 871 3950 
z
" transform="scale(0.015625)"/>
        <path id="Inter-Bold-6e" d="M 1338 2022 
L 1338 0 
L 400 0 
L 400 3494 
L 1284 3494 
L 1297 2772 
Q 1444 3138 1712 3338 
Q 1981 3538 2384 3538 
Q 2928 3538 3256 3188 
Q 3584 2838 3584 2222 
L 3584 0 
L 2647 0 
L 2647 2059 
Q 2647 2384 2480 2568 
Q 2313 2753 2016 2753 
Q 1716 2753 1527 2561 
Q 1338 2369 1338 2022 
z
" transform="scale(0.015625)"/>
        <path id="Inter-Bold-20" transform="scale(0.015625)"/>
        <path id="Inter-Bold-70" d="M 400 -1306 
L 400 3494 
L 1322 3494 
L 1322 2906 
L 1366 2906 
Q 1428 3044 1548 3191 
Q 1669 3338 1867 3438 
Q 2066 3538 2363 3538 
Q 2750 3538 3072 3338 
Q 3394 3138 3586 2738 
Q 3778 2338 3778 1741 
Q 3778 1159 3590 757 
Q 3403 356 3081 148 
Q 2759 -59 2356 -59 
Q 2072 -59 1875 37 
Q 1678 134 1554 276 
Q 1431 419 1366 559 
L 1338 559 
L 1338 -1306 
L 400 -1306 
z
M 2069 694 
Q 2434 694 2626 987 
Q 2819 1281 2819 1744 
Q 2819 2203 2628 2495 
Q 2438 2788 2069 2788 
Q 1706 2788 1511 2503 
Q 1316 2219 1316 1744 
Q 1316 1269 1512 981 
Q 1709 694 2069 694 
z
" transform="scale(0.015625)"/>
        <path id="Inter-Bold-72" d="M 400 0 
L 400 3494 
L 1306 3494 
L 1306 2884 
L 1344 2884 
Q 1441 3206 1667 3373 
Q 1894 3541 2188 3541 
Q 2347 3541 2491 3509 
L 2491 2672 
Q 2428 2691 2308 2705 
Q 2188 2719 2084 2719 
Q 1759 2719 1548 2516 
Q 1338 2313 1338 1988 
L 1338 0 
L 400 0 
z
" transform="scale(0.015625)"/>
        <path id="Inter-Bold-6f" d="M 1963 -69 
Q 1438 -69 1053 157 
Q 669 384 461 789 
Q 253 1194 253 1731 
Q 253 2272 461 2678 
Q 669 3084 1053 3311 
Q 1438 3538 1963 3538 
Q 2488 3538 2872 3311 
Q 3256 3084 3464 2678 
Q 3672 2272 3672 1731 
Q 3672 1194 3464 789 
Q 3256 384 2872 157 
Q 2488 -69 1963 -69 
z
M 1963 669 
Q 2338 669 2528 972 
Q 2719 1275 2719 1734 
Q 2719 2197 2528 2498 
Q 2338 2800 1963 2800 
Q 1588 2800 1398 2498 
Q 1209 2197 1209 1734 
Q 1209 1275 1398 972 
Q 1588 669 1963 669 
z
" transform="scale(0.015625)"/>
        <path id="Inter-Bold-63" d="M 1963 -69 
Q 1434 -69 1051 157 
Q 669 384 461 789 
Q 253 1194 253 1731 
Q 253 2272 461 2678 
Q 669 3084 1051 3311 
Q 1434 3538 1963 3538 
Q 2584 3538 3000 3227 
Q 3416 2916 3516 2375 
L 2644 2213 
Q 2584 2484 2414 2642 
Q 2244 2800 1972 2800 
Q 1597 2800 1403 2504 
Q 1209 2209 1209 1734 
Q 1209 1266 1403 967 
Q 1597 669 1972 669 
Q 2244 669 2419 833 
Q 2594 997 2650 1278 
L 3522 1119 
Q 3422 566 3006 248 
Q 2591 -69 1963 -69 
z
" transform="scale(0.015625)"/>
        <path id="Inter-Bold-65" d="M 1978 -69 
Q 1444 -69 1056 150 
Q 669 369 461 772 
Q 253 1175 253 1728 
Q 253 2269 461 2675 
Q 669 3081 1045 3309 
Q 1422 3538 1931 3538 
Q 2388 3538 2759 3344 
Q 3131 3150 3351 2756 
Q 3572 2363 3572 1766 
L 3572 1503 
L 1181 1503 
Q 1197 1075 1419 856 
Q 1641 638 1994 638 
Q 2241 638 2417 742 
Q 2594 847 2669 1050 
L 3519 891 
Q 3391 456 2989 193 
Q 2588 -69 1978 -69 
z
M 1188 2091 
L 2669 2091 
Q 2634 2431 2450 2631 
Q 2266 2831 1941 2831 
Q 1603 2831 1409 2623 
Q 1216 2416 1188 2091 
z
" transform="scale(0.015625)"/>
       </defs>
       <use xlink:href="#Inter-Bold-47"/>
       <use xlink:href="#Inter-Bold-61" transform="translate(75.048828 0)"/>
       <use xlink:href="#Inter-Bold-75" transform="translate(133.105469 0)"/>
       <use xlink:href="#Inter-Bold-73" transform="translate(195.361328 0)"/>
       <use xlink:href="#Inter-Bold-73" transform="translate(251.367188 0)"/>
       <use xlink:href="#Inter-Bold-69" transform="translate(307.373047 0)"/>
       <use xlink:href="#Inter-Bold-61" transform="translate(334.472656 0)"/>
       <use xlink:href="#Inter-Bold-6e" transform="translate(392.529297 0)"/>
       <use xlink:href="#Inter-Bold-20" transform="translate(454.785156 0)"/>
       <use xlink:href="#Inter-Bold-70" transform="translate(478.466797 0)"/>
       <use xlink:href="#Inter-Bold-72" transform="translate(541.503906 0)"/>
       <use xlink:href="#Inter-Bold-6f" transform="translate(582.226562 0)"/>
       <use xlink:href="#Inter-Bold-63" transform="translate(643.554688 0)"/>
       <use xlink:href="#Inter-Bold-65" transform="translate(702.392578 0)"/>
       <use xlink:href="#Inter-Bold-73" transform="translate(761.962891 0)"/>
       <use xlink:href="#Inter-Bold-73" transform="translate(817.96875 0)"/>
      </g>
     </g>
    </g>
    <g id="ytick_2">
     <g id="line2d_16"/>
     <g id="text_10">
      <!-- Random forest -->
      <g style="fill: #4a5268" transform="translate(137.4075 92.33325) scale(0.27 -0.27)">
       <defs>
        <path id="Inter-Regular-6d" d="M 494 0 
L 494 3494 
L 1041 3494 
L 1044 2853 
Q 1172 3206 1442 3381 
Q 1713 3556 2022 3556 
Q 2366 3556 2592 3361 
Q 2819 3166 2913 2844 
Q 3038 3175 3336 3365 
Q 3634 3556 4013 3556 
Q 4316 3556 4566 3425 
Q 4816 3294 4964 3028 
Q 5113 2763 5113 2356 
L 5113 0 
L 4550 0 
L 4550 2341 
Q 4550 2719 4337 2881 
Q 4125 3044 3844 3044 
Q 3491 3044 3287 2828 
Q 3084 2613 3084 2281 
L 3084 0 
L 2522 0 
L 2522 2397 
Q 2522 2688 2328 2866 
Q 2134 3044 1838 3044 
Q 1531 3044 1293 2831 
Q 1056 2619 1056 2200 
L 1056 0 
L 494 0 
z
" transform="scale(0.015625)"/>
       </defs>
       <use xlink:href="#Inter-Regular-52"/>
       <use xlink:href="#Inter-Regular-61" transform="translate(64.355469 0)"/>
       <use xlink:href="#Inter-Regular-6e" transform="translate(120.507812 0)"/>
       <use xlink:href="#Inter-Regular-64" transform="translate(179.589844 0)"/>
       <use xlink:href="#Inter-Regular-6f" transform="translate(240.820312 0)"/>
       <use xlink:href="#Inter-Regular-6d" transform="translate(300.78125 0)"/>
       <use xlink:href="#Inter-Regular-20" transform="translate(388.378906 0)"/>
       <use xlink:href="#Inter-Regular-66" transform="translate(416.503906 0)"/>
       <use xlink:href="#Inter-Regular-6f" transform="translate(453.515625 0)"/>
       <use xlink:href="#Inter-Regular-72" transform="translate(513.476562 0)"/>
       <use xlink:href="#Inter-Regular-65" transform="translate(551.123047 0)"/>
       <use xlink:href="#Inter-Regular-73" transform="translate(609.423828 0)"/>
       <use xlink:href="#Inter-Regular-74" transform="translate(662.207031 0)"/>
      </g>
     </g>
    </g>
    <g id="ytick_3">
     <g id="line2d_17"/>
     <g id="text_11">
      <!-- Extra trees -->
      <g style="fill: #4a5268" transform="translate(187.589531 132.65325) scale(0.27 -0.27)">
       <defs>
        <path id="Inter-Regular-78" d="M 203 0 
L 1431 1794 
L 275 3494 
L 931 3494 
L 1366 2816 
Q 1484 2628 1579 2461 
Q 1675 2294 1766 2134 
Q 1850 2294 1937 2461 
Q 2025 2628 2147 2816 
L 2591 3494 
L 3234 3494 
L 2066 1763 
L 3291 0 
L 2638 0 
L 2125 784 
Q 2009 963 1918 1123 
Q 1828 1284 1741 1431 
Q 1659 1284 1575 1123 
Q 1491 963 1372 784 
L 853 0 
L 203 0 
z
" transform="scale(0.015625)"/>
       </defs>
       <use xlink:href="#Inter-Regular-45"/>
       <use xlink:href="#Inter-Regular-78" transform="translate(60.107422 0)"/>
       <use xlink:href="#Inter-Regular-74" transform="translate(114.697266 0)"/>
       <use xlink:href="#Inter-Regular-72" transform="translate(147.412109 0)"/>
       <use xlink:href="#Inter-Regular-61" transform="translate(185.058594 0)"/>
       <use xlink:href="#Inter-Regular-20" transform="translate(241.210938 0)"/>
       <use xlink:href="#Inter-Regular-74" transform="translate(269.335938 0)"/>
       <use xlink:href="#Inter-Regular-72" transform="translate(302.050781 0)"/>
       <use xlink:href="#Inter-Regular-65" transform="translate(339.697266 0)"/>
       <use xlink:href="#Inter-Regular-65" transform="translate(397.998047 0)"/>
       <use xlink:href="#Inter-Regular-73" transform="translate(456.298828 0)"/>
      </g>
     </g>
    </g>
    <g id="ytick_4">
     <g id="line2d_18"/>
     <g id="text_12">
      <!-- FT-Transformer -->
      <g style="fill: #4a5268" transform="translate(120.3975 172.97325) scale(0.27 -0.27)">
       <defs>
        <path id="Inter-Regular-46" d="M 563 0 
L 563 4656 
L 3378 4656 
L 3378 4131 
L 1156 4131 
L 1156 2538 
L 3166 2538 
L 3166 2013 
L 1156 2013 
L 1156 0 
L 563 0 
z
" transform="scale(0.015625)"/>
        <path id="Inter-Regular-54" d="M 306 4131 
L 306 4656 
L 3825 4656 
L 3825 4131 
L 2366 4131 
L 2366 0 
L 1772 0 
L 1772 4131 
L 306 4131 
z
" transform="scale(0.015625)"/>
        <path id="Inter-Regular-2d" d="M 2494 2247 
L 2494 1728 
L 450 1728 
L 450 2247 
L 2494 2247 
z
" transform="scale(0.015625)"/>
       </defs>
       <use xlink:href="#Inter-Regular-46"/>
       <use xlink:href="#Inter-Regular-54" transform="translate(59.033203 0)"/>
       <use xlink:href="#Inter-Regular-2d" transform="translate(123.583984 0)"/>
       <use xlink:href="#Inter-Regular-54" transform="translate(169.580078 0)"/>
       <use xlink:href="#Inter-Regular-72" transform="translate(234.130859 0)"/>
       <use xlink:href="#Inter-Regular-61" transform="translate(271.777344 0)"/>
       <use xlink:href="#Inter-Regular-6e" transform="translate(327.929688 0)"/>
       <use xlink:href="#Inter-Regular-73" transform="translate(387.011719 0)"/>
       <use xlink:href="#Inter-Regular-66" transform="translate(439.794922 0)"/>
       <use xlink:href="#Inter-Regular-6f" transform="translate(476.806641 0)"/>
       <use xlink:href="#Inter-Regular-72" transform="translate(536.767578 0)"/>
       <use xlink:href="#Inter-Regular-6d" transform="translate(574.414062 0)"/>
       <use xlink:href="#Inter-Regular-65" transform="translate(662.011719 0)"/>
       <use xlink:href="#Inter-Regular-72" transform="translate(720.3125 0)"/>
      </g>
     </g>
    </g>
    <g id="ytick_5">
     <g id="line2d_19"/>
     <g id="text_13">
      <!-- CatBoost -->
      <g style="fill: #4a5268" transform="translate(208.185469 213.29325) scale(0.27 -0.27)">
       <defs>
        <path id="Inter-Regular-43" d="M 2447 -63 
Q 1850 -63 1383 226 
Q 916 516 648 1052 
Q 381 1588 381 2325 
Q 381 3066 648 3602 
Q 916 4138 1383 4428 
Q 1850 4719 2447 4719 
Q 2919 4719 3314 4536 
Q 3709 4353 3976 4012 
Q 4244 3672 4325 3191 
L 3731 3191 
Q 3666 3509 3477 3728 
Q 3288 3947 3019 4058 
Q 2750 4169 2447 4169 
Q 2028 4169 1690 3956 
Q 1353 3744 1156 3333 
Q 959 2922 959 2325 
Q 959 1731 1157 1320 
Q 1356 909 1693 698 
Q 2031 488 2447 488 
Q 2753 488 3020 600 
Q 3288 713 3477 931 
Q 3666 1150 3731 1466 
L 4325 1466 
Q 4244 994 3980 650 
Q 3716 306 3320 121 
Q 2925 -63 2447 -63 
z
" transform="scale(0.015625)"/>
        <path id="Inter-Regular-42" d="M 563 0 
L 563 4656 
L 2213 4656 
Q 2700 4656 3017 4489 
Q 3334 4322 3489 4042 
Q 3644 3763 3644 3422 
Q 3644 3122 3537 2926 
Q 3431 2731 3257 2615 
Q 3084 2500 2881 2444 
L 2881 2400 
Q 3100 2388 3317 2250 
Q 3534 2113 3679 1859 
Q 3825 1606 3825 1241 
Q 3825 891 3664 609 
Q 3503 328 3159 164 
Q 2816 0 2266 0 
L 563 0 
z
M 1156 525 
L 2250 525 
Q 2794 525 3023 734 
Q 3253 944 3253 1247 
Q 3253 1481 3134 1678 
Q 3016 1875 2798 1994 
Q 2581 2113 2281 2113 
L 1156 2113 
L 1156 525 
z
M 1156 2613 
L 2181 2613 
Q 2556 2613 2815 2831 
Q 3075 3050 3075 3409 
Q 3075 3713 2864 3922 
Q 2653 4131 2200 4131 
L 1156 4131 
L 1156 2613 
z
" transform="scale(0.015625)"/>
       </defs>
       <use xlink:href="#Inter-Regular-43"/>
       <use xlink:href="#Inter-Regular-61" transform="translate(73.046875 0)"/>
       <use xlink:href="#Inter-Regular-74" transform="translate(129.199219 0)"/>
       <use xlink:href="#Inter-Regular-42" transform="translate(161.914062 0)"/>
       <use xlink:href="#Inter-Regular-6f" transform="translate(227.34375 0)"/>
       <use xlink:href="#Inter-Regular-6f" transform="translate(287.304688 0)"/>
       <use xlink:href="#Inter-Regular-73" transform="translate(347.265625 0)"/>
       <use xlink:href="#Inter-Regular-74" transform="translate(400.048828 0)"/>
      </g>
     </g>
    </g>
    <g id="ytick_6">
     <g id="line2d_20"/>
     <g id="text_14">
      <!-- Deep ensemble (5 MLP) -->
      <g style="fill: #4a5268" transform="translate(18 254.214422) scale(0.27 -0.27)">
       <defs>
        <path id="Inter-Regular-44" d="M 2016 0 
L 563 0 
L 563 4656 
L 2075 4656 
Q 2756 4656 3239 4378 
Q 3722 4100 3980 3579 
Q 4238 3059 4238 2338 
Q 4238 1609 3978 1086 
Q 3719 563 3222 281 
Q 2725 0 2016 0 
z
M 1156 525 
L 1978 525 
Q 2828 525 3245 1008 
Q 3663 1491 3663 2338 
Q 3663 3178 3253 3654 
Q 2844 4131 2034 4131 
L 1156 4131 
L 1156 525 
z
" transform="scale(0.015625)"/>
        <path id="Inter-Regular-70" d="M 494 -1306 
L 494 3494 
L 1038 3494 
L 1038 2934 
L 1100 2934 
Q 1159 3028 1265 3170 
Q 1372 3313 1572 3425 
Q 1772 3538 2113 3538 
Q 2550 3538 2883 3319 
Q 3216 3100 3405 2695 
Q 3594 2291 3594 1738 
Q 3594 1181 3406 775 
Q 3219 369 2886 147 
Q 2553 -75 2116 -75 
Q 1784 -75 1581 39 
Q 1378 153 1268 298 
Q 1159 444 1100 541 
L 1056 541 
L 1056 -1306 
L 494 -1306 
z
M 2031 428 
Q 2359 428 2579 604 
Q 2800 781 2911 1079 
Q 3022 1378 3022 1744 
Q 3022 2106 2912 2398 
Q 2803 2691 2583 2862 
Q 2363 3034 2031 3034 
Q 1550 3034 1300 2678 
Q 1050 2322 1050 1744 
Q 1050 1159 1303 793 
Q 1556 428 2031 428 
z
" transform="scale(0.015625)"/>
        <path id="Inter-Regular-62" d="M 2116 -75 
Q 1784 -75 1581 39 
Q 1378 153 1268 298 
Q 1159 444 1100 541 
L 1038 541 
L 1038 0 
L 494 0 
L 494 4656 
L 1056 4656 
L 1056 2934 
L 1100 2934 
Q 1159 3028 1265 3170 
Q 1372 3313 1572 3425 
Q 1772 3538 2113 3538 
Q 2550 3538 2883 3319 
Q 3216 3100 3405 2695 
Q 3594 2291 3594 1738 
Q 3594 1181 3406 775 
Q 3219 369 2886 147 
Q 2553 -75 2116 -75 
z
M 2031 428 
Q 2359 428 2579 604 
Q 2800 781 2911 1079 
Q 3022 1378 3022 1744 
Q 3022 2106 2912 2398 
Q 2803 2691 2583 2862 
Q 2363 3034 2031 3034 
Q 1550 3034 1300 2678 
Q 1050 2322 1050 1744 
Q 1050 1159 1303 793 
Q 1556 428 2031 428 
z
" transform="scale(0.015625)"/>
        <path id="Inter-Regular-4c" d="M 563 0 
L 563 4656 
L 1156 4656 
L 1156 525 
L 3313 525 
L 3313 0 
L 563 0 
z
" transform="scale(0.015625)"/>
        <path id="Inter-Regular-50" d="M 563 0 
L 563 4656 
L 2156 4656 
Q 2700 4656 3051 4457 
Q 3403 4259 3573 3925 
Q 3744 3591 3744 3175 
Q 3744 2759 3573 2421 
Q 3403 2084 3053 1884 
Q 2703 1684 2159 1684 
L 1156 1684 
L 1156 0 
L 563 0 
z
M 1156 2206 
L 2131 2206 
Q 2684 2206 2918 2482 
Q 3153 2759 3153 3175 
Q 3153 3588 2918 3861 
Q 2684 4134 2125 4134 
L 1156 4134 
L 1156 2206 
z
" transform="scale(0.015625)"/>
       </defs>
       <use xlink:href="#Inter-Regular-44"/>
       <use xlink:href="#Inter-Regular-65" transform="translate(72.167969 0)"/>
       <use xlink:href="#Inter-Regular-65" transform="translate(130.46875 0)"/>
       <use xlink:href="#Inter-Regular-70" transform="translate(188.769531 0)"/>
       <use xlink:href="#Inter-Regular-20" transform="translate(250 0)"/>
       <use xlink:href="#Inter-Regular-65" transform="translate(278.125 0)"/>
       <use xlink:href="#Inter-Regular-6e" transform="translate(336.425781 0)"/>
       <use xlink:href="#Inter-Regular-73" transform="translate(395.507812 0)"/>
       <use xlink:href="#Inter-Regular-65" transform="translate(448.291016 0)"/>
       <use xlink:href="#Inter-Regular-6d" transform="translate(506.591797 0)"/>
       <use xlink:href="#Inter-Regular-62" transform="translate(594.189453 0)"/>
       <use xlink:href="#Inter-Regular-6c" transform="translate(655.419922 0)"/>
       <use xlink:href="#Inter-Regular-65" transform="translate(679.638672 0)"/>
       <use xlink:href="#Inter-Regular-20" transform="translate(737.939453 0)"/>
       <use xlink:href="#Inter-Regular-28" transform="translate(766.064453 0)"/>
       <use xlink:href="#Inter-Regular-35" transform="translate(802.539062 0)"/>
       <use xlink:href="#Inter-Regular-20" transform="translate(861.865234 0)"/>
       <use xlink:href="#Inter-Regular-4d" transform="translate(889.990234 0)"/>
       <use xlink:href="#Inter-Regular-4c" transform="translate(980.322266 0)"/>
       <use xlink:href="#Inter-Regular-50" transform="translate(1036.865234 0)"/>
       <use xlink:href="#Inter-Regular-29" transform="translate(1100.732422 0)"/>
      </g>
     </g>
    </g>
    <g id="ytick_7">
     <g id="line2d_21"/>
     <g id="text_15">
      <!-- XGBoost -->
      <g style="fill: #4a5268" transform="translate(213.340781 293.93325) scale(0.27 -0.27)">
       <defs>
        <path id="Inter-Regular-58" d="M 178 0 
L 1847 2384 
L 281 4656 
L 969 4656 
L 1641 3669 
Q 1778 3469 1868 3328 
Q 1959 3188 2032 3058 
Q 2106 2928 2191 2766 
Q 2272 2928 2347 3058 
Q 2422 3188 2514 3328 
Q 2606 3469 2744 3669 
L 3428 4656 
L 4100 4656 
L 2534 2406 
L 4188 0 
L 3503 0 
L 2688 1181 
Q 2513 1438 2406 1605 
Q 2300 1772 2184 2000 
Q 2072 1778 1962 1608 
Q 1853 1438 1675 1181 
L 853 0 
L 178 0 
z
" transform="scale(0.015625)"/>
        <path id="Inter-Regular-47" d="M 2466 -63 
Q 1844 -63 1375 228 
Q 906 519 643 1055 
Q 381 1591 381 2325 
Q 381 3066 643 3602 
Q 906 4138 1368 4428 
Q 1831 4719 2428 4719 
Q 2922 4719 3323 4526 
Q 3725 4334 3990 3992 
Q 4256 3650 4341 3197 
L 3728 3197 
Q 3584 3644 3254 3906 
Q 2925 4169 2431 4169 
Q 2022 4169 1687 3958 
Q 1353 3747 1156 3336 
Q 959 2925 959 2325 
Q 959 1731 1157 1322 
Q 1356 913 1697 700 
Q 2038 488 2466 488 
Q 2853 488 3150 650 
Q 3447 813 3617 1113 
Q 3788 1413 3794 1822 
L 2588 1822 
L 2588 2341 
L 4375 2341 
L 4375 1831 
Q 4375 1253 4128 828 
Q 3881 403 3451 170 
Q 3022 -63 2466 -63 
z
" transform="scale(0.015625)"/>
       </defs>
       <use xlink:href="#Inter-Regular-58"/>
       <use xlink:href="#Inter-Regular-47" transform="translate(68.212891 0)"/>
       <use xlink:href="#Inter-Regular-42" transform="translate(142.822266 0)"/>
       <use xlink:href="#Inter-Regular-6f" transform="translate(208.251953 0)"/>
       <use xlink:href="#Inter-Regular-6f" transform="translate(268.212891 0)"/>
       <use xlink:href="#Inter-Regular-73" transform="translate(328.173828 0)"/>
       <use xlink:href="#Inter-Regular-74" transform="translate(380.957031 0)"/>
      </g>
     </g>
    </g>
    <g id="ytick_8">
     <g id="line2d_22"/>
     <g id="text_16">
      <!-- LightGBM -->
      <g style="fill: #4a5268" transform="translate(199.67625 334.575984) scale(0.27 -0.27)">
       <defs>
        <path id="Inter-Regular-69" d="M 494 0 
L 494 3494 
L 1056 3494 
L 1056 0 
L 494 0 
z
M 780 4066 
Q 621 4066 505 4175 
Q 389 4284 389 4438 
Q 389 4594 505 4701 
Q 621 4809 780 4809 
Q 942 4809 1058 4701 
Q 1174 4594 1174 4438 
Q 1174 4284 1058 4175 
Q 942 4066 780 4066 
z
" transform="scale(0.015625)"/>
        <path id="Inter-Regular-67" d="M 1909 -1381 
Q 1328 -1381 981 -1168 
Q 634 -956 472 -669 
L 928 -375 
Q 1003 -475 1114 -597 
Q 1225 -719 1414 -805 
Q 1603 -891 1909 -891 
Q 2328 -891 2598 -691 
Q 2869 -491 2869 -59 
L 2869 641 
L 2816 641 
Q 2756 541 2648 403 
Q 2541 266 2339 161 
Q 2138 56 1800 56 
Q 1381 56 1047 254 
Q 713 453 519 834 
Q 325 1216 325 1763 
Q 325 2303 515 2701 
Q 706 3100 1042 3319 
Q 1378 3538 1813 3538 
Q 2150 3538 2351 3427 
Q 2553 3316 2662 3172 
Q 2772 3028 2831 2934 
L 2884 2934 
L 2884 3494 
L 3431 3494 
L 3431 -91 
Q 3431 -541 3228 -827 
Q 3025 -1113 2679 -1247 
Q 2334 -1381 1909 -1381 
z
M 1894 556 
Q 2369 556 2622 879 
Q 2875 1203 2875 1775 
Q 2875 2331 2626 2682 
Q 2378 3034 1894 3034 
Q 1563 3034 1341 2864 
Q 1119 2694 1008 2409 
Q 897 2125 897 1775 
Q 897 1238 1150 897 
Q 1403 556 1894 556 
z
" transform="scale(0.015625)"/>
       </defs>
       <use xlink:href="#Inter-Regular-4c"/>
       <use xlink:href="#Inter-Regular-69" transform="translate(56.542969 0)"/>
       <use xlink:href="#Inter-Regular-67" transform="translate(80.761719 0)"/>
       <use xlink:href="#Inter-Regular-68" transform="translate(142.089844 0)"/>
       <use xlink:href="#Inter-Regular-74" transform="translate(201.220703 0)"/>
       <use xlink:href="#Inter-Regular-47" transform="translate(233.935547 0)"/>
       <use xlink:href="#Inter-Regular-42" transform="translate(308.544922 0)"/>
       <use xlink:href="#Inter-Regular-4d" transform="translate(373.974609 0)"/>
      </g>
     </g>
    </g>
    <g id="ytick_9">
     <g id="line2d_23"/>
     <g id="text_17">
      <!-- Quadratic ridge -->
      <g style="fill: #4a5268" transform="translate(127.485 374.895984) scale(0.27 -0.27)">
       <defs>
        <path id="Inter-Regular-51" d="M 2450 -63 
Q 1853 -63 1386 226 
Q 919 516 650 1052 
Q 381 1588 381 2325 
Q 381 3066 650 3602 
Q 919 4138 1386 4428 
Q 1853 4719 2450 4719 
Q 3047 4719 3512 4428 
Q 3978 4138 4245 3602 
Q 4513 3066 4513 2325 
Q 4513 1666 4295 1166 
Q 4078 666 3700 359 
L 4300 -438 
L 3681 -438 
L 3278 103 
Q 2897 -63 2450 -63 
z
M 2256 1456 
L 2875 1456 
L 3363 816 
Q 3625 1044 3779 1423 
Q 3934 1803 3934 2325 
Q 3934 2925 3736 3336 
Q 3538 3747 3202 3958 
Q 2866 4169 2450 4169 
Q 2031 4169 1693 3956 
Q 1356 3744 1157 3333 
Q 959 2922 959 2325 
Q 959 1731 1157 1322 
Q 1356 913 1693 700 
Q 2031 488 2450 488 
Q 2703 488 2931 566 
L 2256 1456 
z
" transform="scale(0.015625)"/>
       </defs>
       <use xlink:href="#Inter-Regular-51"/>
       <use xlink:href="#Inter-Regular-75" transform="translate(76.464844 0)"/>
       <use xlink:href="#Inter-Regular-61" transform="translate(135.595703 0)"/>
       <use xlink:href="#Inter-Regular-64" transform="translate(191.748047 0)"/>
       <use xlink:href="#Inter-Regular-72" transform="translate(252.978516 0)"/>
       <use xlink:href="#Inter-Regular-61" transform="translate(290.625 0)"/>
       <use xlink:href="#Inter-Regular-74" transform="translate(346.777344 0)"/>
       <use xlink:href="#Inter-Regular-69" transform="translate(379.492188 0)"/>
       <use xlink:href="#Inter-Regular-63" transform="translate(403.710938 0)"/>
       <use xlink:href="#Inter-Regular-20" transform="translate(460.839844 0)"/>
       <use xlink:href="#Inter-Regular-72" transform="translate(488.964844 0)"/>
       <use xlink:href="#Inter-Regular-69" transform="translate(526.611328 0)"/>
       <use xlink:href="#Inter-Regular-64" transform="translate(550.830078 0)"/>
       <use xlink:href="#Inter-Regular-67" transform="translate(612.060547 0)"/>
       <use xlink:href="#Inter-Regular-65" transform="translate(673.388672 0)"/>
      </g>
     </g>
    </g>
    <g id="ytick_10">
     <g id="line2d_24"/>
     <g id="text_18">
      <!-- MLP -->
      <g style="fill: #4a5268" transform="translate(268.138125 414.89325) scale(0.27 -0.27)">
       <use xlink:href="#Inter-Regular-4d"/>
       <use xlink:href="#Inter-Regular-4c" transform="translate(90.332031 0)"/>
       <use xlink:href="#Inter-Regular-50" transform="translate(146.875 0)"/>
      </g>
     </g>
    </g>
    <g id="ytick_11">
     <g id="line2d_25"/>
     <g id="text_19">
      <!-- kNN -->
      <g style="fill: #4a5268" transform="translate(269.534531 455.21325) scale(0.27 -0.27)">
       <defs>
        <path id="Inter-Regular-6b" d="M 494 0 
L 494 4656 
L 1056 4656 
L 1056 1953 
L 1125 1953 
L 2619 3494 
L 3316 3494 
L 1853 1994 
L 3425 0 
L 2703 0 
L 1425 1634 
L 1056 1288 
L 1056 0 
L 494 0 
z
" transform="scale(0.015625)"/>
        <path id="Inter-Regular-4e" d="M 563 0 
L 563 4656 
L 1263 4656 
L 3156 1678 
Q 3250 1528 3398 1273 
Q 3547 1019 3706 703 
Q 3678 1041 3672 1327 
Q 3666 1613 3666 1800 
L 3666 4656 
L 4259 4656 
L 4259 0 
L 3553 0 
L 1866 2650 
Q 1759 2816 1654 2991 
Q 1550 3166 1422 3394 
Q 1294 3622 1113 3944 
Q 1131 3497 1145 3161 
Q 1159 2825 1159 2656 
L 1159 0 
L 563 0 
z
" transform="scale(0.015625)"/>
       </defs>
       <use xlink:href="#Inter-Regular-6b"/>
       <use xlink:href="#Inter-Regular-4e" transform="translate(54.882812 0)"/>
       <use xlink:href="#Inter-Regular-4e" transform="translate(130.224609 0)"/>
      </g>
     </g>
    </g>
    <g id="ytick_12">
     <g id="line2d_26"/>
     <g id="text_20">
      <!-- SVR (RBF) -->
      <g style="fill: #4a5268" transform="translate(193.440938 495.53325) scale(0.27 -0.27)">
       <defs>
        <path id="Inter-Regular-56" d="M 1875 0 
L 163 4656 
L 788 4656 
L 1772 1894 
Q 1850 1678 1961 1329 
Q 2072 981 2219 481 
Q 2366 994 2477 1336 
Q 2588 1678 2663 1894 
L 3622 4656 
L 4253 4656 
L 2559 0 
L 1875 0 
z
" transform="scale(0.015625)"/>
       </defs>
       <use xlink:href="#Inter-Regular-53"/>
       <use xlink:href="#Inter-Regular-56" transform="translate(64.160156 0)"/>
       <use xlink:href="#Inter-Regular-52" transform="translate(133.154297 0)"/>
       <use xlink:href="#Inter-Regular-20" transform="translate(197.509766 0)"/>
       <use xlink:href="#Inter-Regular-28" transform="translate(225.634766 0)"/>
       <use xlink:href="#Inter-Regular-52" transform="translate(262.109375 0)"/>
       <use xlink:href="#Inter-Regular-42" transform="translate(326.464844 0)"/>
       <use xlink:href="#Inter-Regular-46" transform="translate(391.894531 0)"/>
       <use xlink:href="#Inter-Regular-29" transform="translate(450.927734 0)"/>
      </g>
     </g>
    </g>
    <g id="ytick_13">
     <g id="line2d_27"/>
     <g id="text_21">
      <!-- Kernel ridge -->
      <g style="fill: #4a5268" transform="translate(169.63875 536.175984) scale(0.27 -0.27)">
       <defs>
        <path id="Inter-Regular-4b" d="M 563 0 
L 563 4656 
L 1156 4656 
L 1156 3063 
L 1147 2206 
Q 1341 2459 1539 2690 
Q 1738 2922 1950 3153 
L 3341 4656 
L 4119 4656 
L 2238 2641 
L 4122 0 
L 3419 0 
L 1828 2238 
L 1156 1528 
L 1156 0 
L 563 0 
z
" transform="scale(0.015625)"/>
       </defs>
       <use xlink:href="#Inter-Regular-4b"/>
       <use xlink:href="#Inter-Regular-65" transform="translate(67.1875 0)"/>
       <use xlink:href="#Inter-Regular-72" transform="translate(125.488281 0)"/>
       <use xlink:href="#Inter-Regular-6e" transform="translate(163.134766 0)"/>
       <use xlink:href="#Inter-Regular-65" transform="translate(222.216797 0)"/>
       <use xlink:href="#Inter-Regular-6c" transform="translate(280.517578 0)"/>
       <use xlink:href="#Inter-Regular-20" transform="translate(304.736328 0)"/>
       <use xlink:href="#Inter-Regular-72" transform="translate(332.861328 0)"/>
       <use xlink:href="#Inter-Regular-69" transform="translate(370.507812 0)"/>
       <use xlink:href="#Inter-Regular-64" transform="translate(394.726562 0)"/>
       <use xlink:href="#Inter-Regular-67" transform="translate(455.957031 0)"/>
       <use xlink:href="#Inter-Regular-65" transform="translate(517.285156 0)"/>
      </g>
     </g>
    </g>
   </g>
   <g id="LineCollection_1">
    <path d="M 328.540625 42.192 
L 401.719028 42.192 
" clip-path="url(#pe5c2f054b5)" style="fill: none; stroke: #e3e6ec; stroke-width: 3"/>
    <path d="M 328.540625 82.512 
L 413.140885 82.512 
" clip-path="url(#pe5c2f054b5)" style="fill: none; stroke: #e3e6ec; stroke-width: 3"/>
    <path d="M 328.540625 122.832 
L 413.635864 122.832 
" clip-path="url(#pe5c2f054b5)" style="fill: none; stroke: #e3e6ec; stroke-width: 3"/>
    <path d="M 328.540625 163.152 
L 420.993578 163.152 
" clip-path="url(#pe5c2f054b5)" style="fill: none; stroke: #e3e6ec; stroke-width: 3"/>
    <path d="M 328.540625 203.472 
L 424.406076 203.472 
" clip-path="url(#pe5c2f054b5)" style="fill: none; stroke: #e3e6ec; stroke-width: 3"/>
    <path d="M 328.540625 243.792 
L 424.722519 243.792 
" clip-path="url(#pe5c2f054b5)" style="fill: none; stroke: #e3e6ec; stroke-width: 3"/>
    <path d="M 328.540625 284.112 
L 431.676048 284.112 
" clip-path="url(#pe5c2f054b5)" style="fill: none; stroke: #e3e6ec; stroke-width: 3"/>
    <path d="M 328.540625 324.432 
L 436.803897 324.432 
" clip-path="url(#pe5c2f054b5)" style="fill: none; stroke: #e3e6ec; stroke-width: 3"/>
    <path d="M 328.540625 364.752 
L 445.407293 364.752 
" clip-path="url(#pe5c2f054b5)" style="fill: none; stroke: #e3e6ec; stroke-width: 3"/>
    <path d="M 328.540625 405.072 
L 456.859888 405.072 
" clip-path="url(#pe5c2f054b5)" style="fill: none; stroke: #e3e6ec; stroke-width: 3"/>
    <path d="M 328.540625 445.392 
L 467.597621 445.392 
" clip-path="url(#pe5c2f054b5)" style="fill: none; stroke: #e3e6ec; stroke-width: 3"/>
    <path d="M 328.540625 485.712 
L 527.122868 485.712 
" clip-path="url(#pe5c2f054b5)" style="fill: none; stroke: #e3e6ec; stroke-width: 3"/>
    <path d="M 328.540625 526.032 
L 798.72263 526.032 
" clip-path="url(#pe5c2f054b5)" style="fill: none; stroke: #e3e6ec; stroke-width: 3"/>
   </g>
   <g id="patch_3">
    <path d="M 328.540625 550.224 
L 328.540625 18 
" style="fill: none; stroke: #8a90a0; stroke-width: 1.4; stroke-linejoin: miter; stroke-linecap: square"/>
   </g>
   <g id="patch_4">
    <path d="M 328.540625 550.224 
L 877.753223 550.224 
" style="fill: none; stroke: #8a90a0; stroke-width: 1.4; stroke-linejoin: miter; stroke-linecap: square"/>
   </g>
   <g id="PathCollection_1">
    <defs>
     <path id="C0_0_8027584895" d="M 0 7.416198 
C 1.966799 7.416198 3.853307 6.634781 5.244044 5.244044 
C 6.634781 3.853307 7.416198 1.966799 7.416198 -0 
C 7.416198 -1.966799 6.634781 -3.853307 5.244044 -5.244044 
C 3.853307 -6.634781 1.966799 -7.416198 0 -7.416198 
C -1.966799 -7.416198 -3.853307 -6.634781 -5.244044 -5.244044 
C -6.634781 -3.853307 -7.416198 -1.966799 -7.416198 0 
C -7.416198 1.966799 -6.634781 3.853307 -5.244044 5.244044 
C -3.853307 6.634781 -1.966799 7.416198 0 7.416198 
z
"/>
    </defs>
    <g clip-path="url(#pe5c2f054b5)">
     <use xlink:href="#C0_0_8027584895" x="401.719028" y="42.192" style="fill: #2f4574; stroke: #ffffff; stroke-width: 2"/>
    </g>
    <g clip-path="url(#pe5c2f054b5)">
     <use xlink:href="#C0_0_8027584895" x="413.140885" y="82.512" style="fill: #9aa3b5; stroke: #ffffff; stroke-width: 2"/>
    </g>
    <g clip-path="url(#pe5c2f054b5)">
     <use xlink:href="#C0_0_8027584895" x="413.635864" y="122.832" style="fill: #9aa3b5; stroke: #ffffff; stroke-width: 2"/>
    </g>
    <g clip-path="url(#pe5c2f054b5)">
     <use xlink:href="#C0_0_8027584895" x="420.993578" y="163.152" style="fill: #9aa3b5; stroke: #ffffff; stroke-width: 2"/>
    </g>
    <g clip-path="url(#pe5c2f054b5)">
     <use xlink:href="#C0_0_8027584895" x="424.406076" y="203.472" style="fill: #9aa3b5; stroke: #ffffff; stroke-width: 2"/>
    </g>
    <g clip-path="url(#pe5c2f054b5)">
     <use xlink:href="#C0_0_8027584895" x="424.722519" y="243.792" style="fill: #9aa3b5; stroke: #ffffff; stroke-width: 2"/>
    </g>
    <g clip-path="url(#pe5c2f054b5)">
     <use xlink:href="#C0_0_8027584895" x="431.676048" y="284.112" style="fill: #9aa3b5; stroke: #ffffff; stroke-width: 2"/>
    </g>
    <g clip-path="url(#pe5c2f054b5)">
     <use xlink:href="#C0_0_8027584895" x="436.803897" y="324.432" style="fill: #9aa3b5; stroke: #ffffff; stroke-width: 2"/>
    </g>
    <g clip-path="url(#pe5c2f054b5)">
     <use xlink:href="#C0_0_8027584895" x="445.407293" y="364.752" style="fill: #9aa3b5; stroke: #ffffff; stroke-width: 2"/>
    </g>
    <g clip-path="url(#pe5c2f054b5)">
     <use xlink:href="#C0_0_8027584895" x="456.859888" y="405.072" style="fill: #9aa3b5; stroke: #ffffff; stroke-width: 2"/>
    </g>
    <g clip-path="url(#pe5c2f054b5)">
     <use xlink:href="#C0_0_8027584895" x="467.597621" y="445.392" style="fill: #9aa3b5; stroke: #ffffff; stroke-width: 2"/>
    </g>
    <g clip-path="url(#pe5c2f054b5)">
     <use xlink:href="#C0_0_8027584895" x="527.122868" y="485.712" style="fill: #9aa3b5; stroke: #ffffff; stroke-width: 2"/>
    </g>
    <g clip-path="url(#pe5c2f054b5)">
     <use xlink:href="#C0_0_8027584895" x="798.72263" y="526.032" style="fill: #9aa3b5; stroke: #ffffff; stroke-width: 2"/>
    </g>
   </g>
   <g id="text_22">
    <!-- 0.040 -->
    <g style="fill: #14213d" transform="translate(412.703279 48.734969) scale(0.25 -0.25)">
     <defs>
      <path id="Inter-Bold-30" d="M 2156 -63 
Q 1275 -63 784 565 
Q 294 1194 294 2325 
Q 294 3456 786 4087 
Q 1278 4719 2156 4719 
Q 3038 4719 3530 4086 
Q 4022 3453 4022 2325 
Q 4022 1194 3531 565 
Q 3041 -63 2156 -63 
z
M 2156 728 
Q 2588 728 2819 1143 
Q 3050 1559 3050 2325 
Q 3050 3094 2819 3512 
Q 2588 3931 2156 3931 
Q 1728 3931 1497 3511 
Q 1266 3091 1266 2325 
Q 1266 1559 1495 1143 
Q 1725 728 2156 728 
z
" transform="scale(0.015625)"/>
      <path id="Inter-Bold-2e" d="M 1069 -59 
Q 841 -59 684 95 
Q 528 250 528 478 
Q 528 706 684 861 
Q 841 1016 1069 1016 
Q 1297 1016 1453 861 
Q 1609 706 1609 478 
Q 1609 250 1453 95 
Q 1297 -59 1069 -59 
z
" transform="scale(0.015625)"/>
      <path id="Inter-Bold-34" d="M 316 828 
L 316 1581 
L 2263 4656 
L 3459 4656 
L 3459 1597 
L 4041 1597 
L 4041 828 
L 3459 828 
L 3459 0 
L 2544 0 
L 2544 828 
L 316 828 
z
M 2563 1597 
L 2563 3606 
L 2525 3606 
L 1278 1634 
L 1278 1597 
L 2563 1597 
z
" transform="scale(0.015625)"/>
     </defs>
     <use xlink:href="#Inter-Bold-30"/>
     <use xlink:href="#Inter-Bold-2e" transform="translate(67.431641 0)"/>
     <use xlink:href="#Inter-Bold-30" transform="translate(100.830078 0)"/>
     <use xlink:href="#Inter-Bold-34" transform="translate(168.261719 0)"/>
     <use xlink:href="#Inter-Bold-30" transform="translate(235.888672 0)"/>
    </g>
   </g>
   <g id="text_23">
    <!-- 0.046 -->
    <g style="fill: #4a5268" transform="translate(424.125137 89.054969) scale(0.25 -0.25)">
     <defs>
      <path id="Inter-Regular-34" d="M 375 947 
L 375 1431 
L 2413 4656 
L 3134 4656 
L 3134 1469 
L 3766 1469 
L 3766 947 
L 3134 947 
L 3134 0 
L 2566 0 
L 2566 947 
L 375 947 
z
M 2569 1469 
L 2569 3913 
L 2531 3913 
L 1009 1506 
L 1009 1469 
L 2569 1469 
z
" transform="scale(0.015625)"/>
      <path id="Inter-Regular-36" d="M 2019 -63 
Q 1728 -63 1437 43 
Q 1147 150 908 400 
Q 669 650 525 1078 
Q 381 1506 381 2150 
Q 381 3378 840 4048 
Q 1300 4719 2091 4719 
Q 2481 4719 2790 4562 
Q 3100 4406 3297 4128 
Q 3494 3850 3550 3484 
L 2969 3484 
Q 2891 3788 2672 3991 
Q 2453 4194 2091 4194 
Q 1553 4194 1248 3730 
Q 944 3266 944 2425 
L 981 2425 
Q 1169 2716 1467 2880 
Q 1766 3044 2128 3044 
Q 2528 3044 2859 2847 
Q 3191 2650 3389 2301 
Q 3588 1953 3588 1503 
Q 3588 1069 3394 714 
Q 3200 359 2847 148 
Q 2494 -63 2019 -63 
z
M 2019 459 
Q 2300 459 2525 600 
Q 2750 741 2881 977 
Q 3013 1213 3013 1503 
Q 3013 1788 2886 2020 
Q 2759 2253 2537 2390 
Q 2316 2528 2034 2528 
Q 1753 2528 1525 2384 
Q 1297 2241 1162 2005 
Q 1028 1769 1028 1497 
Q 1028 1222 1156 986 
Q 1284 750 1509 604 
Q 1734 459 2019 459 
z
" transform="scale(0.015625)"/>
     </defs>
     <use xlink:href="#Inter-Regular-30"/>
     <use xlink:href="#Inter-Regular-2e" transform="translate(63.085938 0)"/>
     <use xlink:href="#Inter-Regular-30" transform="translate(91.894531 0)"/>
     <use xlink:href="#Inter-Regular-34" transform="translate(154.980469 0)"/>
     <use xlink:href="#Inter-Regular-36" transform="translate(219.580078 0)"/>
    </g>
   </g>
   <g id="text_24">
    <!-- 0.046 -->
    <g style="fill: #4a5268" transform="translate(424.620116 129.374969) scale(0.25 -0.25)">
     <use xlink:href="#Inter-Regular-30"/>
     <use xlink:href="#Inter-Regular-2e" transform="translate(63.085938 0)"/>
     <use xlink:href="#Inter-Regular-30" transform="translate(91.894531 0)"/>
     <use xlink:href="#Inter-Regular-34" transform="translate(154.980469 0)"/>
     <use xlink:href="#Inter-Regular-36" transform="translate(219.580078 0)"/>
    </g>
   </g>
   <g id="text_25">
    <!-- 0.051 -->
    <g style="fill: #4a5268" transform="translate(431.977829 169.694969) scale(0.25 -0.25)">
     <use xlink:href="#Inter-Regular-30"/>
     <use xlink:href="#Inter-Regular-2e" transform="translate(63.085938 0)"/>
     <use xlink:href="#Inter-Regular-30" transform="translate(91.894531 0)"/>
     <use xlink:href="#Inter-Regular-35" transform="translate(154.980469 0)"/>
     <use xlink:href="#Inter-Regular-31" transform="translate(214.306641 0)"/>
    </g>
   </g>
   <g id="text_26">
    <!-- 0.052 -->
    <g style="fill: #4a5268" transform="translate(435.390328 210.014969) scale(0.25 -0.25)">
     <use xlink:href="#Inter-Regular-30"/>
     <use xlink:href="#Inter-Regular-2e" transform="translate(63.085938 0)"/>
     <use xlink:href="#Inter-Regular-30" transform="translate(91.894531 0)"/>
     <use xlink:href="#Inter-Regular-35" transform="translate(154.980469 0)"/>
     <use xlink:href="#Inter-Regular-32" transform="translate(214.306641 0)"/>
    </g>
   </g>
   <g id="text_27">
    <!-- 0.053 -->
    <g style="fill: #4a5268" transform="translate(435.706771 250.334969) scale(0.25 -0.25)">
     <use xlink:href="#Inter-Regular-30"/>
     <use xlink:href="#Inter-Regular-2e" transform="translate(63.085938 0)"/>
     <use xlink:href="#Inter-Regular-30" transform="translate(91.894531 0)"/>
     <use xlink:href="#Inter-Regular-35" transform="translate(154.980469 0)"/>
     <use xlink:href="#Inter-Regular-33" transform="translate(214.306641 0)"/>
    </g>
   </g>
   <g id="text_28">
    <!-- 0.056 -->
    <g style="fill: #4a5268" transform="translate(442.6603 290.654969) scale(0.25 -0.25)">
     <use xlink:href="#Inter-Regular-30"/>
     <use xlink:href="#Inter-Regular-2e" transform="translate(63.085938 0)"/>
     <use xlink:href="#Inter-Regular-30" transform="translate(91.894531 0)"/>
     <use xlink:href="#Inter-Regular-35" transform="translate(154.980469 0)"/>
     <use xlink:href="#Inter-Regular-36" transform="translate(214.306641 0)"/>
    </g>
   </g>
   <g id="text_29">
    <!-- 0.059 -->
    <g style="fill: #4a5268" transform="translate(447.788149 330.974969) scale(0.25 -0.25)">
     <defs>
      <path id="Inter-Regular-39" d="M 1884 -63 
Q 1488 -63 1178 93 
Q 869 250 672 531 
Q 475 813 419 1184 
L 1006 1184 
Q 1078 875 1297 669 
Q 1516 463 1884 463 
Q 2416 463 2723 927 
Q 3031 1391 3031 2238 
L 2994 2238 
Q 2806 1953 2509 1784 
Q 2213 1616 1847 1616 
Q 1447 1616 1112 1814 
Q 778 2013 579 2361 
Q 381 2709 381 3156 
Q 381 3591 578 3948 
Q 775 4306 1129 4517 
Q 1484 4728 1963 4719 
Q 2250 4716 2537 4608 
Q 2825 4500 3062 4253 
Q 3300 4006 3444 3581 
Q 3588 3156 3588 2513 
Q 3588 1278 3131 607 
Q 2675 -63 1884 -63 
z
M 1934 2134 
Q 2219 2134 2447 2279 
Q 2675 2425 2811 2662 
Q 2947 2900 2947 3172 
Q 2947 3441 2817 3673 
Q 2688 3906 2464 4051 
Q 2241 4197 1953 4197 
Q 1672 4197 1448 4058 
Q 1225 3919 1094 3683 
Q 963 3447 963 3159 
Q 963 2875 1089 2642 
Q 1216 2409 1434 2271 
Q 1653 2134 1934 2134 
z
" transform="scale(0.015625)"/>
     </defs>
     <use xlink:href="#Inter-Regular-30"/>
     <use xlink:href="#Inter-Regular-2e" transform="translate(63.085938 0)"/>
     <use xlink:href="#Inter-Regular-30" transform="translate(91.894531 0)"/>
     <use xlink:href="#Inter-Regular-35" transform="translate(154.980469 0)"/>
     <use xlink:href="#Inter-Regular-39" transform="translate(214.306641 0)"/>
    </g>
   </g>
   <g id="text_30">
    <!-- 0.064 -->
    <g style="fill: #4a5268" transform="translate(456.391545 371.294969) scale(0.25 -0.25)">
     <use xlink:href="#Inter-Regular-30"/>
     <use xlink:href="#Inter-Regular-2e" transform="translate(63.085938 0)"/>
     <use xlink:href="#Inter-Regular-30" transform="translate(91.894531 0)"/>
     <use xlink:href="#Inter-Regular-36" transform="translate(154.980469 0)"/>
     <use xlink:href="#Inter-Regular-34" transform="translate(216.992188 0)"/>
    </g>
   </g>
   <g id="text_31">
    <!-- 0.070 -->
    <g style="fill: #4a5268" transform="translate(467.84414 411.614969) scale(0.25 -0.25)">
     <defs>
      <path id="Inter-Regular-37" d="M 625 0 
L 2694 4097 
L 2694 4134 
L 306 4134 
L 306 4656 
L 3316 4656 
L 3316 4103 
L 1250 0 
L 625 0 
z
" transform="scale(0.015625)"/>
     </defs>
     <use xlink:href="#Inter-Regular-30"/>
     <use xlink:href="#Inter-Regular-2e" transform="translate(63.085938 0)"/>
     <use xlink:href="#Inter-Regular-30" transform="translate(91.894531 0)"/>
     <use xlink:href="#Inter-Regular-37" transform="translate(154.980469 0)"/>
     <use xlink:href="#Inter-Regular-30" transform="translate(211.572266 0)"/>
    </g>
   </g>
   <g id="text_32">
    <!-- 0.076 -->
    <g style="fill: #4a5268" transform="translate(478.581873 451.934969) scale(0.25 -0.25)">
     <use xlink:href="#Inter-Regular-30"/>
     <use xlink:href="#Inter-Regular-2e" transform="translate(63.085938 0)"/>
     <use xlink:href="#Inter-Regular-30" transform="translate(91.894531 0)"/>
     <use xlink:href="#Inter-Regular-37" transform="translate(154.980469 0)"/>
     <use xlink:href="#Inter-Regular-36" transform="translate(211.572266 0)"/>
    </g>
   </g>
   <g id="text_33">
    <!-- 0.108 -->
    <g style="fill: #4a5268" transform="translate(538.10712 492.254969) scale(0.25 -0.25)">
     <defs>
      <path id="Inter-Regular-38" d="M 1978 -63 
Q 1506 -63 1145 104 
Q 784 272 582 565 
Q 381 859 381 1238 
Q 381 1531 500 1782 
Q 619 2034 825 2203 
Q 1031 2372 1291 2419 
L 1291 2444 
Q 950 2531 750 2822 
Q 550 3113 550 3481 
Q 550 3838 734 4117 
Q 919 4397 1241 4558 
Q 1563 4719 1978 4719 
Q 2388 4719 2709 4558 
Q 3031 4397 3217 4117 
Q 3403 3838 3403 3481 
Q 3403 3113 3201 2822 
Q 3000 2531 2669 2444 
L 2669 2419 
Q 2922 2372 3128 2203 
Q 3334 2034 3456 1782 
Q 3578 1531 3578 1238 
Q 3578 859 3373 565 
Q 3169 272 2808 104 
Q 2447 -63 1978 -63 
z
M 1978 453 
Q 2441 453 2712 676 
Q 2984 900 2984 1269 
Q 2984 1528 2853 1726 
Q 2722 1925 2494 2039 
Q 2266 2153 1978 2153 
Q 1538 2153 1252 1904 
Q 966 1656 966 1269 
Q 966 900 1236 676 
Q 1506 453 1978 453 
z
M 1978 2650 
Q 2347 2650 2587 2867 
Q 2828 3084 2828 3438 
Q 2828 3788 2593 3997 
Q 2359 4206 1978 4206 
Q 1591 4206 1358 3997 
Q 1125 3788 1125 3438 
Q 1125 3084 1362 2867 
Q 1600 2650 1978 2650 
z
" transform="scale(0.015625)"/>
     </defs>
     <use xlink:href="#Inter-Regular-30"/>
     <use xlink:href="#Inter-Regular-2e" transform="translate(63.085938 0)"/>
     <use xlink:href="#Inter-Regular-31" transform="translate(91.894531 0)"/>
     <use xlink:href="#Inter-Regular-30" transform="translate(132.568359 0)"/>
     <use xlink:href="#Inter-Regular-38" transform="translate(195.654297 0)"/>
    </g>
   </g>
   <g id="text_34">
    <!-- 0.257 -->
    <g style="fill: #4a5268" transform="translate(809.706882 532.574969) scale(0.25 -0.25)">
     <use xlink:href="#Inter-Regular-30"/>
     <use xlink:href="#Inter-Regular-2e" transform="translate(63.085938 0)"/>
     <use xlink:href="#Inter-Regular-32" transform="translate(91.894531 0)"/>
     <use xlink:href="#Inter-Regular-35" transform="translate(152.880859 0)"/>
     <use xlink:href="#Inter-Regular-37" transform="translate(212.207031 0)"/>
    </g>
   </g>
  </g>
 </g>
 <defs>
  <clipPath id="pe5c2f054b5">
   <rect x="328.540625" y="18" width="549.212598" height="532.224"/>
  </clipPath>
 </defs>
</svg>
